<svg width="1024" height="1024" viewBox="0 0 1024 1024" fill="none" xmlns="http://www.w3.org/2000/svg">
<rect x="0.5" y="0.5" width="1023" height="1023" fill="#006EDC"/>
<path d="M155.299 339.302C155.299 307.139 181.372 281.065 213.536 281.065H766.736H788.952C821.115 281.065 847.189 307.139 847.189 339.302V367.882V641.017C847.189 673.18 821.115 699.254 788.952 699.254H213.536C181.372 699.254 155.299 673.18 155.299 641.017V339.302Z" fill="white"/>
<path d="M273.256 696.54L498.945 696.54C417.01 758.58 367.184 788.361 273.256 834.982C287.448 782.009 291.139 751.981 273.256 696.54Z" fill="white"/>
<path d="M259.088 453.343C265.145 451.829 273.094 450.22 282.936 448.517C292.967 446.814 304.513 445.962 317.572 445.962C327.036 445.962 334.985 447.287 341.421 449.937C347.856 452.397 353.25 456.088 357.603 461.009C358.928 460.063 361.01 458.738 363.849 457.034C366.688 455.331 370.19 453.722 374.354 452.208C378.517 450.504 383.155 449.085 388.265 447.949C393.375 446.624 398.864 445.962 404.731 445.962C416.088 445.962 425.362 447.665 432.554 451.072C439.746 454.29 445.33 458.927 449.305 464.984C453.468 471.04 456.213 478.232 457.538 486.56C459.052 494.888 459.809 503.973 459.809 513.815V596.716H433.406V519.493C433.406 510.787 432.933 503.311 431.986 497.065C431.229 490.819 429.62 485.614 427.16 481.45C424.889 477.286 421.671 474.258 417.507 472.365C413.532 470.283 408.328 469.242 401.892 469.242C392.997 469.242 385.615 470.472 379.748 472.933C374.07 475.204 370.19 477.286 368.108 479.179C369.622 484.1 370.757 489.494 371.514 495.361C372.272 501.229 372.65 507.38 372.65 513.815V596.716H346.247V519.493C346.247 510.787 345.774 503.311 344.827 497.065C343.881 490.819 342.178 485.614 339.717 481.45C337.446 477.286 334.228 474.258 330.064 472.365C326.09 470.283 320.979 469.242 314.733 469.242C312.084 469.242 309.245 469.337 306.216 469.526C303.188 469.715 300.254 469.999 297.415 470.378C294.765 470.567 292.305 470.851 290.034 471.229C287.762 471.608 286.248 471.892 285.491 472.081V596.716H259.088V453.343ZM621.16 592.457C615.104 593.971 607.06 595.58 597.028 597.283C587.186 598.987 575.736 599.839 562.676 599.839C551.32 599.839 541.762 598.23 534.001 595.012C526.241 591.605 519.995 586.874 515.264 580.817C510.532 574.76 507.125 567.663 505.043 559.524C502.961 551.196 501.92 542.016 501.92 531.985V449.085H528.323V526.307C528.323 544.288 531.162 557.158 536.84 564.918C542.519 572.678 552.077 576.558 565.515 576.558C568.354 576.558 571.288 576.464 574.316 576.274C577.344 576.085 580.183 575.896 582.833 575.707C585.483 575.328 587.849 575.044 589.931 574.855C592.202 574.476 593.811 574.098 594.757 573.719V449.085H621.16V592.457ZM701 577.694C711.788 577.694 719.738 576.274 724.848 573.435C730.147 570.596 732.797 566.054 732.797 559.808C732.797 553.373 730.242 548.262 725.132 544.477C720.021 540.692 711.599 536.433 699.864 531.701C694.186 529.43 688.697 527.159 683.398 524.888C678.287 522.427 673.84 519.588 670.054 516.37C666.269 513.153 663.24 509.273 660.969 504.73C658.698 500.188 657.562 494.604 657.562 487.98C657.562 474.92 662.389 464.605 672.041 457.034C681.694 449.274 694.849 445.394 711.504 445.394C715.668 445.394 719.832 445.678 723.996 446.246C728.16 446.624 732.04 447.192 735.636 447.949C739.232 448.517 742.355 449.179 745.005 449.937C747.844 450.694 750.021 451.356 751.535 451.924L746.709 474.636C743.869 473.122 739.422 471.608 733.365 470.094C727.308 468.39 720.021 467.539 711.504 467.539C704.123 467.539 697.688 469.053 692.199 472.081C686.71 474.92 683.965 479.463 683.965 485.709C683.965 488.926 684.533 491.765 685.669 494.226C686.994 496.686 688.887 498.958 691.347 501.04C693.997 502.932 697.214 504.73 701 506.434C704.785 508.137 709.328 509.935 714.627 511.828C721.63 514.478 727.876 517.127 733.365 519.777C738.854 522.238 743.491 525.171 747.276 528.578C751.251 531.985 754.279 536.149 756.361 541.07C758.443 545.802 759.484 551.669 759.484 558.672C759.484 572.3 754.374 582.615 744.153 589.618C734.122 596.621 719.738 600.122 701 600.122C687.94 600.122 677.72 598.987 670.338 596.716C662.956 594.634 657.941 593.025 655.291 591.889L660.117 569.177C663.146 570.312 667.972 572.016 674.597 574.287C681.221 576.558 690.022 577.694 701 577.694Z" fill="#006EDC"/>
<ellipse cx="803.573" cy="329.624" rx="65.1281" ry="69.984" fill="#006EDC"/>
<ellipse cx="804.575" cy="328.547" rx="46.0906" ry="49.5271" fill="white"/>
<rect x="0.5" y="0.5" width="1023" height="1023" stroke="black"/>
</svg>
