<svg width="34" height="34" viewBox="0 0 34 34" fill="none" xmlns="http://www.w3.org/2000/svg">
<rect width="34" height="34" rx="16" fill="url(#paint0_linear_621_6781)"/>
<rect x="1.96152" y="1.96143" width="30.0769" height="30.0769" rx="14" fill="white" fill-opacity="0.2"/>
<g clip-path="url(#clip0_621_6781)">
<path d="M18.3916 16.9165C19.8984 16.9165 21.1189 15.696 21.1189 14.1892C21.1189 12.6824 19.8984 11.4619 18.3916 11.4619C16.8848 11.4619 15.6643 12.6824 15.6643 14.1892C15.6643 15.696 16.8848 16.9165 18.3916 16.9165ZM12.2552 15.5528V14.1892C12.2552 13.8142 11.9484 13.5074 11.5734 13.5074C11.1984 13.5074 10.8916 13.8142 10.8916 14.1892V15.5528H9.52795C9.15295 15.5528 8.84613 15.8596 8.84613 16.2346C8.84613 16.6096 9.15295 16.9165 9.52795 16.9165H10.8916V18.2801C10.8916 18.6551 11.1984 18.9619 11.5734 18.9619C11.9484 18.9619 12.2552 18.6551 12.2552 18.2801V16.9165H13.6189C13.9939 16.9165 14.3007 16.6096 14.3007 16.2346C14.3007 15.8596 13.9939 15.5528 13.6189 15.5528H12.2552ZM18.3916 18.2801C16.5711 18.2801 12.937 19.1937 12.937 21.0074V21.6892C12.937 22.0642 13.2439 22.371 13.6189 22.371H23.1643C23.5393 22.371 23.8461 22.0642 23.8461 21.6892V21.0074C23.8461 19.1937 20.212 18.2801 18.3916 18.2801Z" fill="white"/>
</g>
<defs>
<linearGradient id="paint0_linear_621_6781" x1="17" y1="0" x2="17" y2="34" gradientUnits="userSpaceOnUse">
<stop stop-color="#FFBC47"/>
<stop offset="1" stop-color="#F49939"/>
</linearGradient>
<clipPath id="clip0_621_6781">
<rect width="15.6923" height="15.6923" fill="white" transform="translate(9 9)"/>
</clipPath>
</defs>
</svg>
