<svg width="33" height="32" viewBox="0 0 33 32" fill="none" xmlns="http://www.w3.org/2000/svg">
<path d="M7.6365 7.50211L19.678 8.98647L20.6558 9.10487L18.7596 24.4625C18.4814 27.05 14.1218 27.489 11.5315 27.1713C8.94113 26.8508 4.87598 25.3491 5.15419 22.7616L6.63439 7.37793L7.6365 7.50211Z" fill="url(#paint0_linear_42974_374031)"/>
<path opacity="0.2" d="M7.17215 8.0883L7.56921 8.1374L13.59 8.87958L19.6134 9.62176L19.9862 9.66507L18.1683 24.3874C18.0927 25.0949 17.5498 25.6552 16.5558 26.0566C15.6509 26.4204 14.4138 26.6197 13.074 26.6197C12.5689 26.6197 12.0611 26.5908 11.6019 26.5331C10.4999 26.3973 8.85493 25.9873 7.5503 25.248C6.66704 24.7455 5.63522 23.9224 5.75407 22.8251L7.17215 8.0883ZM6.63733 7.375L5.15713 22.7586C4.87891 25.3462 8.94137 26.8478 11.5344 27.1684C12.0017 27.2262 12.5257 27.2579 13.074 27.2579C15.5645 27.2579 18.533 26.5793 18.7626 24.4596L20.6587 9.10194L19.6809 8.98354L7.63944 7.49918L6.63733 7.375Z" fill="#424242"/>
<path d="M7.96896 8.05078L6.5752 21.927C6.5752 22.415 6.89393 22.9233 7.37202 23.2323C8.22557 23.7867 9.94347 24.4394 11.8964 24.6791C13.7601 24.9101 15.3916 24.708 16.3559 24.4047C16.969 24.2141 17.4957 23.7405 17.6146 23.2929L19.1623 9.42829L7.96896 8.05078Z" fill="url(#paint1_linear_42974_374031)"/>
<path d="M14.5992 23.7812C14.7484 23.7812 14.8693 23.6519 14.8693 23.4924C14.8693 23.3329 14.7484 23.2036 14.5992 23.2036C14.45 23.2036 14.3291 23.3329 14.3291 23.4924C14.3291 23.6519 14.45 23.7812 14.5992 23.7812Z" fill="#E4A324"/>
<path d="M15.2752 22.9781C15.3782 22.9781 15.4616 22.8889 15.4616 22.7789C15.4616 22.6688 15.3782 22.5796 15.2752 22.5796C15.1723 22.5796 15.0889 22.6688 15.0889 22.7789C15.0889 22.8889 15.1723 22.9781 15.2752 22.9781Z" fill="#E4A324"/>
<path d="M14.1325 22.6144C14.313 22.6144 14.4593 22.4579 14.4593 22.265C14.4593 22.072 14.313 21.9155 14.1325 21.9155C13.952 21.9155 13.8057 22.072 13.8057 22.265C13.8057 22.4579 13.952 22.6144 14.1325 22.6144Z" fill="#E4A324"/>
<path d="M15.2969 22.4061C15.4818 22.4061 15.6318 22.2458 15.6318 22.048C15.6318 21.8503 15.4818 21.6899 15.2969 21.6899C15.1119 21.6899 14.9619 21.8503 14.9619 22.048C14.9619 22.2458 15.1119 22.4061 15.2969 22.4061Z" fill="#E4A324"/>
<path d="M14.3922 20.6791C14.5414 20.6791 14.6623 20.5498 14.6623 20.3903C14.6623 20.2309 14.5414 20.1016 14.3922 20.1016C14.243 20.1016 14.1221 20.2309 14.1221 20.3903C14.1221 20.5498 14.243 20.6791 14.3922 20.6791Z" fill="#E4A324"/>
<path d="M15.0802 20.8729C15.213 20.8729 15.3206 20.7579 15.3206 20.6159C15.3206 20.474 15.213 20.3589 15.0802 20.3589C14.9475 20.3589 14.8398 20.474 14.8398 20.6159C14.8398 20.7579 14.9475 20.8729 15.0802 20.8729Z" fill="#E4A324"/>
<path d="M16.2687 19.3597C16.4015 19.3597 16.5091 19.2447 16.5091 19.1027C16.5091 18.9608 16.4015 18.8457 16.2687 18.8457C16.136 18.8457 16.0283 18.9608 16.0283 19.1027C16.0283 19.2447 16.136 19.3597 16.2687 19.3597Z" fill="#E4A324"/>
<path d="M14.1482 17.6298C14.3153 17.6298 14.4507 17.485 14.4507 17.3064C14.4507 17.1277 14.3153 16.9829 14.1482 16.9829C13.9811 16.9829 13.8457 17.1277 13.8457 17.3064C13.8457 17.485 13.9811 17.6298 14.1482 17.6298Z" fill="#E4A324"/>
<path d="M15.4072 20.2229C15.6115 20.2229 15.7772 20.0458 15.7772 19.8273C15.7772 19.6088 15.6115 19.4316 15.4072 19.4316C15.2028 19.4316 15.0371 19.6088 15.0371 19.8273C15.0371 20.0458 15.2028 20.2229 15.4072 20.2229Z" fill="#E4A324"/>
<path d="M14.5756 18.892C14.777 18.892 14.9402 18.7175 14.9402 18.5022C14.9402 18.2869 14.777 18.1123 14.5756 18.1123C14.3742 18.1123 14.2109 18.2869 14.2109 18.5022C14.2109 18.7175 14.3742 18.892 14.5756 18.892Z" fill="#E4A324"/>
<path d="M15.856 18.4702C16.0052 18.4702 16.1262 18.3409 16.1262 18.1814C16.1262 18.0219 16.0052 17.8926 15.856 17.8926C15.7069 17.8926 15.5859 18.0219 15.5859 18.1814C15.5859 18.3409 15.7069 18.4702 15.856 18.4702Z" fill="#E4A324"/>
<path d="M7.12352 8.96926L5.95934 7.89209C5.95934 7.89209 5.08419 8.80177 3.34738 8.90862C1.86178 8.99814 0.516629 9.32736 0.106062 14.5226C-0.247782 19.0508 0.211404 20.1482 2.59107 21.0694C4.66282 21.8693 5.18953 22.4585 5.18953 22.4585L5.8432 21.8231L6.39692 16.2322L7.12352 8.96926ZM3.23393 17.9621C1.99953 17.809 2.14809 16.4113 2.33447 14.6872C2.52084 12.9632 2.67211 11.5654 3.90651 11.7185C5.14091 11.8716 4.99235 13.2693 4.80597 14.9933C4.6196 16.7145 4.39271 18.1036 3.23393 17.9621Z" fill="url(#paint2_linear_42974_374031)"/>
<path opacity="0.2" d="M5.93287 8.71224L6.4974 9.23494L5.80591 16.1658L5.2765 21.5141L5.15495 21.6325C4.74438 21.3495 4.02049 20.9423 2.79689 20.4687C0.819684 19.7034 0.357796 19.0277 0.708939 14.5775C1.0952 9.69123 2.25937 9.61903 3.38843 9.54972C4.60392 9.47175 5.45477 9.03568 5.93287 8.71224ZM3.39383 18.6118C5.01989 18.6118 5.24138 16.5614 5.40075 15.0655C5.49799 14.1732 5.58712 13.3328 5.47908 12.6571C5.29 11.4846 4.55801 11.1525 3.97457 11.0803C3.89083 11.0687 3.8071 11.0658 3.72877 11.0658C2.12161 11.0658 1.92714 12.8708 1.73806 14.615C1.64082 15.5074 1.55168 16.3477 1.65973 17.0235C1.8488 18.196 2.5808 18.5281 3.16424 18.6003C3.24257 18.6061 3.3182 18.6118 3.39383 18.6118ZM5.96258 7.89209C5.96258 7.89209 5.08742 8.80177 3.35061 8.90862C1.86501 8.99814 0.519862 9.32736 0.109295 14.5226C-0.24725 19.0508 0.211937 20.1482 2.59161 21.0694C4.66335 21.8693 5.19006 22.4585 5.19006 22.4585L5.84373 21.8231L6.39745 16.2322L7.12405 8.96926L5.96258 7.89209ZM3.39383 17.9707C3.34251 17.9707 3.28849 17.9678 3.23447 17.9592C1.99736 17.8061 2.14863 16.4084 2.335 14.6843C2.51057 13.0469 2.65643 11.7041 3.72877 11.7041C3.78549 11.7041 3.84492 11.707 3.90704 11.7156C5.14144 11.8687 4.99288 13.2664 4.80651 14.9905C4.62823 16.6336 4.41485 17.9707 3.39383 17.9707Z" fill="#424242"/>
<path d="M5.53758 6.28656C5.65102 6.06419 5.68074 5.80428 5.62671 5.54726C5.57809 5.31912 5.56189 5.08232 5.58079 4.83974C5.66993 3.72214 6.52618 2.84711 7.57961 2.80668C7.71196 2.80091 7.84432 2.80957 7.97127 2.8269C8.2846 2.8731 8.60603 2.81246 8.85453 2.61608C9.25159 2.3042 9.75669 2.14248 10.3023 2.19446C10.4644 2.2089 10.621 2.24644 10.7723 2.29553C11.326 1.91433 12.004 1.71796 12.7306 1.79016C13.5706 1.87102 14.3188 2.29264 14.8699 2.91065C15.3588 2.65363 15.9233 2.53234 16.5229 2.59009C17.8006 2.71427 18.8675 3.61817 19.3429 4.81663C19.4455 4.81086 19.5509 4.81086 19.6589 4.81952C20.8771 4.93792 21.8225 6.08441 21.7766 7.37817C21.7739 7.4648 21.7658 7.55144 21.7523 7.63519C22.1763 7.99328 22.4167 8.58818 22.2871 9.2033C22.1628 9.79242 21.6902 10.2314 21.1229 10.2862C20.9365 10.3036 20.7178 10.2949 20.5395 10.2112L20.4801 10.1794C20.2262 10.6588 19.7805 11.0053 19.2538 11.1035C19.0917 11.1613 18.9242 11.2017 18.7757 11.2854C17.9815 11.7417 18.3759 14.1069 16.3582 13.9076C15.0076 13.7748 14.7483 12.6139 14.6889 11.8515C14.6565 11.4298 14.5187 11.0024 14.3567 10.5664C14.2918 10.3873 14.0866 10.3209 13.938 10.422C13.3708 10.8089 12.6847 10.9822 11.9932 10.9158C11.1802 10.8378 10.4509 10.4422 9.90796 9.85595C9.55141 9.47187 9.01929 9.3448 8.59252 9.58449C8.17385 9.81841 7.67145 9.90216 7.14203 9.78376C6.18584 9.57005 5.42413 8.68926 5.30798 7.65829C5.24586 7.15003 5.3404 6.6793 5.53758 6.28656Z" fill="url(#paint3_linear_42974_374031)"/>
<path opacity="0.2" d="M12.4343 2.64175C12.5072 2.64175 12.5802 2.64464 12.6558 2.6533C13.2663 2.71395 13.8416 3.01717 14.2819 3.50811C14.4385 3.68427 14.6519 3.77668 14.868 3.77668C14.9896 3.77668 15.1111 3.7478 15.2246 3.68715C15.5379 3.52255 15.8755 3.4388 16.2294 3.4388C16.3023 3.4388 16.3752 3.44169 16.4482 3.45035C17.38 3.54276 18.2228 4.20986 18.5955 5.1513C18.7225 5.47474 19.0169 5.67978 19.341 5.67978H19.3815C19.414 5.67689 19.4464 5.67689 19.4788 5.67689C19.5139 5.67689 19.5463 5.67689 19.5814 5.68267C20.3728 5.76064 20.9941 6.50571 20.9617 7.34608C20.959 7.39517 20.9563 7.45004 20.9455 7.50779C20.9023 7.8168 21.0157 8.1258 21.2453 8.3164C21.4074 8.45213 21.5559 8.70915 21.4911 9.01526C21.4452 9.23474 21.2642 9.40223 21.0481 9.42245C21.0211 9.42533 20.9914 9.42534 20.9644 9.42534C20.9023 9.42534 20.8699 9.41667 20.8617 9.41667C20.8509 9.4109 20.8374 9.40512 20.8266 9.39646C20.7132 9.3387 20.5943 9.31271 20.4782 9.31271C20.1946 9.31271 19.9218 9.47154 19.7732 9.75166C19.6327 10.0173 19.3923 10.1964 19.1141 10.2484C19.0736 10.257 19.0358 10.2657 18.998 10.2801C18.9602 10.2946 18.9224 10.3061 18.8872 10.3177C18.7468 10.3639 18.5712 10.4188 18.3929 10.5227C17.8284 10.8462 17.6285 11.4699 17.4503 12.0186C17.1639 12.8994 17.037 13.0525 16.5886 13.0525C16.54 13.0525 16.486 13.0496 16.4319 13.0438C16.0241 13.0034 15.5811 12.8706 15.4947 11.7789C15.4541 11.2418 15.2867 10.7249 15.1111 10.2484C14.9463 9.79787 14.5466 9.5062 14.0928 9.5062C13.8821 9.5062 13.6795 9.56973 13.504 9.69102C13.1474 9.9336 12.726 10.0636 12.2858 10.0636C12.2128 10.0636 12.1399 10.0607 12.0697 10.052C11.4781 9.99424 10.9163 9.70835 10.4841 9.2434C10.1006 8.83044 9.58196 8.59363 9.06065 8.59363C8.76623 8.59363 8.47721 8.66872 8.2179 8.81311C8.03423 8.91707 7.82895 8.96905 7.61556 8.96905C7.51562 8.96905 7.41298 8.9575 7.31033 8.9344C6.69178 8.79578 6.18938 8.21532 6.11375 7.55111C6.07863 7.245 6.12725 6.94755 6.25691 6.69631C6.46219 6.29489 6.52161 5.8184 6.42437 5.35634C6.39466 5.20906 6.38386 5.05889 6.39466 4.91161C6.44868 4.23007 6.9727 3.69582 7.61556 3.66983H7.66958C7.73441 3.66983 7.79923 3.6756 7.86406 3.68427C7.9667 3.69871 8.07204 3.70737 8.17469 3.70737C8.60956 3.70737 9.01203 3.57164 9.33886 3.31462C9.55765 3.14135 9.82236 3.05183 10.1033 3.05183C10.1465 3.05183 10.1897 3.05471 10.2329 3.0576C10.3329 3.06626 10.4328 3.08937 10.5354 3.12402C10.6138 3.15001 10.6948 3.16445 10.7758 3.16445C10.9298 3.16445 11.0838 3.11825 11.2134 3.02583C11.5727 2.77459 11.9967 2.64175 12.4343 2.64175ZM12.4343 1.77539C11.8185 1.77539 11.2485 1.96599 10.7704 2.29521C10.6192 2.24611 10.4625 2.20857 10.3004 2.19413C10.2329 2.18835 10.1654 2.18547 10.0979 2.18547C9.63058 2.18547 9.2011 2.3443 8.85536 2.61576C8.65818 2.76881 8.41778 2.84101 8.16928 2.84101C8.10446 2.84101 8.03693 2.83524 7.9694 2.82657C7.86946 2.81213 7.76682 2.80347 7.66148 2.80347C7.63447 2.80347 7.60475 2.80347 7.57774 2.80636C6.52431 2.84967 5.66807 3.72181 5.57893 4.83941C5.56002 5.08199 5.57623 5.3188 5.62485 5.54694C5.67887 5.80107 5.64916 6.06386 5.53571 6.28623C5.33583 6.67898 5.24399 7.1497 5.30072 7.65796C5.41686 8.68893 6.17857 9.56973 7.13476 9.78343C7.29413 9.81808 7.45349 9.83541 7.60745 9.83541C7.9613 9.83541 8.29353 9.74589 8.58525 9.58128C8.73381 9.50042 8.89318 9.45999 9.05254 9.45999C9.35777 9.45999 9.66839 9.60149 9.90069 9.85274C10.4463 10.439 11.1729 10.8346 11.9859 10.9126C12.0832 10.9212 12.1804 10.927 12.2777 10.927C12.8665 10.927 13.4418 10.7509 13.9307 10.4188C13.9793 10.387 14.0334 10.3697 14.0847 10.3697C14.1954 10.3697 14.3035 10.439 14.3494 10.5603C14.5088 10.9963 14.6465 11.4237 14.6816 11.8454C14.7411 12.6078 15.0031 13.7716 16.3509 13.9015C16.4319 13.9102 16.5076 13.9131 16.5805 13.9131C18.3389 13.9131 18.0067 11.7154 18.7684 11.2793C18.917 11.1956 19.0844 11.1552 19.2465 11.0974C19.7732 10.9992 20.2189 10.6527 20.4728 10.1733L20.5322 10.2051C20.6619 10.2657 20.8158 10.2859 20.9617 10.2859C21.0157 10.2859 21.067 10.283 21.1156 10.2773C21.6829 10.2253 22.1556 9.78632 22.2798 9.19431C22.4068 8.57919 22.1691 7.98429 21.745 7.6262C21.7558 7.54245 21.7639 7.45581 21.7693 7.36918C21.8179 6.07542 20.8698 4.92894 19.6517 4.81053C19.5922 4.80476 19.5328 4.80187 19.4761 4.80187C19.4302 4.80187 19.3842 4.80476 19.3383 4.80476C18.8656 3.60629 17.796 2.70239 16.5184 2.57822C16.4211 2.56955 16.3212 2.56378 16.2267 2.56378C15.7378 2.56378 15.2759 2.68507 14.868 2.89877C14.317 2.28077 13.5688 1.86203 12.7287 1.77828C12.6315 1.78117 12.5316 1.77539 12.4343 1.77539Z" fill="#424242"/>
<path d="M21.3665 0.343267L23.1492 0.00249965C23.2356 -0.0148275 23.3166 0.0602568 23.3085 0.155556L23.0573 4.13503C23.0465 4.28808 22.8548 4.32274 22.7953 4.18412L21.2665 0.545417C21.2287 0.46167 21.28 0.360594 21.3665 0.343267Z" fill="#F44336"/>
<path d="M25.9534 0.285291L27.439 1.39134C27.5119 1.44621 27.5173 1.55884 27.4498 1.62237L24.6379 4.24744C24.5299 4.34851 24.3705 4.22722 24.4191 4.08572L25.7454 0.3546C25.7778 0.265076 25.8804 0.23331 25.9534 0.285291Z" fill="#F44336"/>
<path d="M28.8594 3.8838L29.1782 5.78979C29.1944 5.8822 29.1242 5.96884 29.035 5.96018L25.3129 5.69161C25.1697 5.68005 25.1373 5.47502 25.267 5.41148L28.6704 3.77695C28.7487 3.73941 28.8432 3.79139 28.8594 3.8838Z" fill="#F44336"/>
<path d="M25.1152 13.3533L19.4321 14.055L13.749 14.7539L12.8252 14.8636L14.616 29.3578C14.878 31.798 18.9918 32.2139 21.439 31.9135C23.8862 31.6132 27.7191 30.1924 27.457 27.7521L26.0606 13.2349L25.1152 13.3533Z" fill="url(#paint4_linear_42974_374031)"/>
<path opacity="0.2" d="M25.5528 13.9073L26.8925 27.8239C27.0033 28.852 26.0309 29.6317 25.1962 30.1024C23.9645 30.8013 22.4114 31.1854 21.3715 31.3153C20.9393 31.3673 20.4585 31.3962 19.9831 31.3962C17.8708 31.3962 15.3426 30.8446 15.1752 29.2794L13.46 15.3945L13.8138 15.3512L25.18 13.9535L25.5528 13.9073ZM26.0579 13.2373L25.1152 13.3557L13.749 14.7534L12.8252 14.8632L14.616 29.3573C14.8321 31.3586 17.6332 31.9997 19.9858 31.9997C20.5017 31.9997 20.9987 31.968 21.439 31.9131C23.8835 31.6128 27.7191 30.1919 27.457 27.7517L26.0579 13.2373Z" fill="#424242"/>
<path d="M24.7755 13.9019L26.1152 26.9694C26.1152 27.4286 25.8127 27.9109 25.3616 28.2025C24.5567 28.7252 22.936 29.3404 21.0912 29.5685C19.33 29.7851 17.7931 29.5945 16.8801 29.3086C16.3021 29.1267 15.8051 28.6819 15.6917 28.2603L14.2061 15.2043L24.7755 13.9019Z" fill="url(#paint5_linear_42974_374031)"/>
<path d="M18.5439 28.7167C18.6842 28.7167 18.7978 28.5952 18.7978 28.4453C18.7978 28.2954 18.6842 28.1738 18.5439 28.1738C18.4037 28.1738 18.29 28.2954 18.29 28.4453C18.29 28.5952 18.4037 28.7167 18.5439 28.7167Z" fill="#E4A324"/>
<path d="M17.9041 27.9599C18.0011 27.9599 18.0797 27.8759 18.0797 27.7722C18.0797 27.6685 18.0011 27.5845 17.9041 27.5845C17.8071 27.5845 17.7285 27.6685 17.7285 27.7722C17.7285 27.8759 17.8071 27.9599 17.9041 27.9599Z" fill="#E4A324"/>
<path d="M18.9837 27.6194C19.1538 27.6194 19.2916 27.472 19.2916 27.2902C19.2916 27.1083 19.1538 26.9609 18.9837 26.9609C18.8136 26.9609 18.6758 27.1083 18.6758 27.2902C18.6758 27.472 18.8136 27.6194 18.9837 27.6194Z" fill="#E4A324"/>
<path d="M17.8873 27.4199C18.0619 27.4199 18.2033 27.2686 18.2033 27.082C18.2033 26.8954 18.0619 26.7441 17.8873 26.7441C17.7128 26.7441 17.5713 26.8954 17.5713 27.082C17.5713 27.2686 17.7128 27.4199 17.8873 27.4199Z" fill="#E4A324"/>
<path d="M18.7412 25.7915C18.8814 25.7915 18.9951 25.6699 18.9951 25.52C18.9951 25.3701 18.8814 25.2485 18.7412 25.2485C18.601 25.2485 18.4873 25.3701 18.4873 25.52C18.4873 25.6699 18.601 25.7915 18.7412 25.7915Z" fill="#E4A324"/>
<path d="M18.0872 25.973C18.2126 25.973 18.3141 25.8643 18.3141 25.7304C18.3141 25.5964 18.2126 25.4878 18.0872 25.4878C17.9619 25.4878 17.8604 25.5964 17.8604 25.7304C17.8604 25.8643 17.9619 25.973 18.0872 25.973Z" fill="#E4A324"/>
<path d="M16.9691 24.5467C17.0944 24.5467 17.196 24.4381 17.196 24.3041C17.196 24.1701 17.0944 24.0615 16.9691 24.0615C16.8438 24.0615 16.7422 24.1701 16.7422 24.3041C16.7422 24.4381 16.8438 24.5467 16.9691 24.5467Z" fill="#E4A324"/>
<path d="M18.9709 22.915C19.129 22.915 19.2572 22.7779 19.2572 22.6088C19.2572 22.4398 19.129 22.3027 18.9709 22.3027C18.8128 22.3027 18.6846 22.4398 18.6846 22.6088C18.6846 22.7779 18.8128 22.915 18.9709 22.915Z" fill="#E4A324"/>
<path d="M17.7791 25.3608C17.9715 25.3608 18.1275 25.194 18.1275 24.9883C18.1275 24.7825 17.9715 24.6157 17.7791 24.6157C17.5867 24.6157 17.4307 24.7825 17.4307 24.9883C17.4307 25.194 17.5867 25.3608 17.7791 25.3608Z" fill="#E4A324"/>
<path d="M18.5657 24.1017C18.7552 24.1017 18.9087 23.9375 18.9087 23.7349C18.9087 23.5324 18.7552 23.3682 18.5657 23.3682C18.3762 23.3682 18.2227 23.5324 18.2227 23.7349C18.2227 23.9375 18.3762 24.1017 18.5657 24.1017Z" fill="#E4A324"/>
<path d="M17.3584 23.706C17.4986 23.706 17.6123 23.5845 17.6123 23.4345C17.6123 23.2846 17.4986 23.1631 17.3584 23.1631C17.2182 23.1631 17.1045 23.2846 17.1045 23.4345C17.1045 23.5845 17.2182 23.706 17.3584 23.706Z" fill="#E4A324"/>
<path d="M26.2822 21.592L26.8063 26.8682L27.4248 27.4688C27.4248 27.4688 27.9218 26.9115 29.8774 26.1577C32.1247 25.2885 32.5569 24.2546 32.2193 19.9777C31.833 15.077 30.5635 14.7651 29.1616 14.6785C27.522 14.5774 26.6982 13.7197 26.6982 13.7197L25.6016 14.7363L26.2822 21.592ZM27.7868 20.4225C27.6112 18.7966 27.468 17.4768 28.6349 17.3324C29.8018 17.188 29.9422 18.5078 30.1178 20.1337C30.2934 21.7595 30.4365 23.0793 29.2697 23.2237C28.1757 23.3594 27.9623 22.0512 27.7868 20.4225Z" fill="url(#paint6_linear_42974_374031)"/>
<path opacity="0.2" d="M26.7223 14.4966C27.1707 14.8027 27.9783 15.2157 29.1263 15.285C30.1905 15.3514 31.2898 15.4178 31.6545 20.0297C31.984 24.2287 31.5492 24.8698 29.6827 25.5889C28.5266 26.0365 27.8459 26.4206 27.457 26.6863L27.3435 26.5765L26.8438 21.5285L26.1902 14.9875L26.7223 14.4966ZM29.1209 23.8388C29.1911 23.8388 29.264 23.8331 29.337 23.8244C29.888 23.758 30.5795 23.4432 30.7577 22.3371C30.8604 21.7018 30.7739 20.9048 30.6821 20.0644C30.5038 18.4183 30.3202 16.7174 28.8048 16.7174C28.7292 16.7174 28.6509 16.7231 28.5725 16.7318C28.0215 16.7982 27.33 17.113 27.1518 18.2191C27.0491 18.8544 27.1356 19.6514 27.2247 20.4918C27.376 21.904 27.5866 23.8388 29.1209 23.8388ZM26.6953 13.7227L25.5986 14.7392L26.2847 21.5921L26.8087 26.8682L27.4273 27.4689C27.4273 27.4689 27.9243 26.9115 29.8799 26.1578C32.1272 25.2885 32.5594 24.2547 32.2217 19.9778C31.8355 15.0771 30.566 14.7652 29.1641 14.6785C27.5218 14.5804 26.6953 13.7227 26.6953 13.7227ZM29.1209 23.2353C28.1566 23.2353 27.954 21.9733 27.7865 20.4225C27.611 18.7966 27.4678 17.4769 28.6347 17.3325C28.6941 17.3267 28.7481 17.3209 28.8021 17.3209C29.815 17.3209 29.9528 18.5887 30.1176 20.1337C30.2931 21.7596 30.4363 23.0793 29.2694 23.2237C29.2181 23.2324 29.1695 23.2353 29.1209 23.2353Z" fill="#424242"/>
<path opacity="0.51" d="M24.4669 26.5592C24.0266 26.6776 23.589 26.3513 23.5377 25.869L22.7598 18.6436C22.7166 18.2393 22.9624 17.861 23.3351 17.7686C23.7754 17.6559 24.2049 17.9794 24.2589 18.4588L25.0368 25.6842C25.0746 26.0885 24.8315 26.4639 24.4669 26.5592Z" fill="white" fill-opacity="0.72"/>
<path opacity="0.51" d="M22.3067 28.0031C21.8665 28.1215 21.4289 27.7951 21.3776 27.3129L20.5996 20.0874C20.5564 19.6831 20.8022 19.3048 21.175 19.2124C21.6153 19.0998 22.0447 19.4232 22.0988 19.9026L22.8767 27.128C22.9145 27.5323 22.6714 27.9078 22.3067 28.0031Z" fill="white" fill-opacity="0.72"/>
<path d="M27.7388 12.351C27.6253 12.1286 27.5956 11.8687 27.6496 11.6117C27.6982 11.3836 27.7145 11.1468 27.6955 10.9042C27.6064 9.78659 26.7502 8.91157 25.6967 8.87114C25.5644 8.86536 25.432 8.87402 25.3051 8.89135C24.9917 8.93756 24.6703 8.87691 24.4218 8.68054C24.0248 8.36865 23.5196 8.20693 22.974 8.25891C22.812 8.27335 22.6553 8.31089 22.504 8.35999C21.9503 7.97879 21.2723 7.78241 20.5457 7.85461C19.7057 7.93547 18.9575 8.3571 18.4065 8.9751C17.9176 8.71808 17.353 8.59679 16.7534 8.65455C15.4758 8.77873 14.4088 9.68263 13.9334 10.8811C13.8308 10.8753 13.7255 10.8753 13.6174 10.884C12.3992 11.0024 11.4538 12.1489 11.4998 13.4426C11.5025 13.5293 11.5106 13.6159 11.5241 13.6996C11.1 14.0577 10.8596 14.6526 10.9892 15.2677C11.1135 15.8569 11.5862 16.2958 12.1534 16.3507C12.3398 16.368 12.5586 16.3594 12.7369 16.2756L12.7963 16.2438C13.0502 16.7232 13.4959 17.0698 14.0226 17.168C14.1846 17.2257 14.3521 17.2661 14.5007 17.3499C15.2948 17.8062 14.9004 20.1713 16.9182 19.9721C18.2687 19.8392 18.528 18.6783 18.5874 17.9159C18.6198 17.4943 18.7576 17.0669 18.9197 16.6308C18.9845 16.4518 19.1898 16.3854 19.3383 16.4864C19.9056 16.8734 20.5917 17.0467 21.2831 16.9802C22.0962 16.9023 22.8255 16.5066 23.3684 15.9204C23.7249 15.5363 24.257 15.4093 24.6838 15.6489C25.1025 15.8829 25.6049 15.9666 26.1343 15.8482C27.0905 15.6345 27.8522 14.7537 27.9684 13.7227C28.0305 13.2145 27.9386 12.7438 27.7388 12.351Z" fill="url(#paint7_linear_42974_374031)"/>
<path opacity="0.2" d="M20.8426 8.70669C21.2828 8.70669 21.7042 8.83953 22.0689 9.08789C22.2012 9.1803 22.3525 9.22651 22.5064 9.22651C22.5875 9.22651 22.6685 9.21495 22.7468 9.18608C22.8495 9.15142 22.9494 9.13121 23.0494 9.11965C23.0926 9.11677 23.1358 9.11388 23.179 9.11388C23.4599 9.11388 23.7246 9.2034 23.9434 9.37667C24.2703 9.63369 24.6727 9.76942 25.1076 9.76942C25.2102 9.76942 25.3156 9.76076 25.4182 9.74632C25.4831 9.73766 25.5479 9.73188 25.6127 9.73188H25.6667C26.3096 9.75787 26.8336 10.2921 26.8876 10.9737C26.8984 11.1209 26.8903 11.2711 26.8579 11.4184C26.7607 11.8804 26.8201 12.3569 27.0254 12.7584C27.1523 13.0096 27.2037 13.3071 27.1685 13.6132C27.0929 14.2745 26.5905 14.8578 25.972 14.9965C25.8693 15.0196 25.7667 15.0311 25.6667 15.0311C25.4506 15.0311 25.2481 14.9791 25.0644 14.8752C24.8078 14.7308 24.5161 14.6557 24.2216 14.6557C23.7003 14.6557 23.1817 14.8925 22.7982 15.3055C22.3687 15.7675 21.8042 16.0563 21.2126 16.1141C21.1397 16.1198 21.0668 16.1256 20.9965 16.1256C20.5562 16.1256 20.1349 15.9985 19.781 15.756C19.6028 15.6347 19.4002 15.5711 19.1895 15.5711C18.7357 15.5711 18.3359 15.8628 18.1712 16.3133C17.9956 16.7898 17.8281 17.3067 17.7876 17.8439C17.7039 18.9355 17.2609 19.0683 16.8503 19.1088C16.7963 19.1145 16.7423 19.1174 16.6937 19.1174C16.2453 19.1174 16.1183 18.9615 15.832 18.0836C15.6538 17.532 15.4512 16.9082 14.8893 16.5877C14.7084 16.4837 14.5355 16.4288 14.395 16.3826C14.3572 16.3711 14.3194 16.3595 14.2843 16.3451C14.2465 16.3306 14.206 16.322 14.1681 16.3133C13.8899 16.2613 13.6495 16.0794 13.5091 15.8166C13.3605 15.5365 13.0877 15.3776 12.8041 15.3776C12.6879 15.3776 12.5691 15.4036 12.4557 15.4614C12.4448 15.4672 12.434 15.4729 12.4205 15.4787C12.4097 15.4816 12.3746 15.4874 12.3152 15.4874C12.2855 15.4874 12.2585 15.4845 12.2315 15.4845C12.0181 15.4643 11.8344 15.2968 11.7885 15.0773C11.7237 14.7683 11.8749 14.5142 12.0343 14.3784C12.2639 14.185 12.3773 13.876 12.3341 13.5698C12.326 13.5121 12.3206 13.4601 12.3179 13.4081C12.2882 12.5678 12.9067 11.8227 13.6982 11.7447C13.7333 11.7418 13.7657 11.7389 13.8008 11.7389C13.8332 11.7389 13.8656 11.7389 13.898 11.7418H13.9386C14.2627 11.7418 14.5571 11.5339 14.6841 11.2134C15.0568 10.2719 15.8996 9.60193 16.8314 9.5124C16.9044 9.50663 16.9773 9.50085 17.0502 9.50085C17.4041 9.50085 17.7417 9.5846 18.055 9.74921C18.1685 9.80985 18.29 9.83873 18.4116 9.83873C18.6277 9.83873 18.8411 9.74632 18.9977 9.57016C19.4353 9.07922 20.0133 8.776 20.6238 8.71535C20.6967 8.71247 20.7696 8.70669 20.8426 8.70669ZM20.8426 7.84033C20.7453 7.84033 20.6481 7.84611 20.5481 7.85477C19.7081 7.93563 18.9599 8.35726 18.4089 8.97526C17.9983 8.76156 17.5391 8.64027 17.0502 8.64027C16.953 8.64027 16.8557 8.64605 16.7585 8.65471C15.4809 8.77889 14.4139 9.68279 13.9386 10.8812C13.8926 10.8784 13.8467 10.8784 13.8008 10.8784C13.7414 10.8784 13.6847 10.8812 13.6252 10.887C12.407 11.0054 11.4616 12.1519 11.5076 13.4457C11.5103 13.5323 11.5184 13.6189 11.5319 13.7027C11.1078 14.0608 10.8674 14.6557 10.9971 15.2708C11.1213 15.8599 11.594 16.2989 12.1612 16.3537C12.2099 16.3595 12.2639 16.3624 12.3152 16.3624C12.4611 16.3624 12.6123 16.3422 12.7447 16.2815L12.8041 16.2498C13.058 16.7292 13.5037 17.0757 14.0304 17.1739C14.1925 17.2317 14.3599 17.2721 14.5085 17.3558C15.2702 17.7919 14.938 19.9896 16.6964 19.9896C16.7693 19.9896 16.8449 19.9867 16.926 19.978C18.2765 19.8452 18.5358 18.6842 18.5953 17.9219C18.6277 17.5002 18.7654 17.0728 18.9275 16.6368C18.9734 16.5155 19.0814 16.4462 19.1922 16.4462C19.2462 16.4462 19.2975 16.4606 19.3462 16.4952C19.8324 16.8274 20.4104 17.0035 20.9992 17.0035C21.0965 17.0035 21.1937 16.9977 21.2909 16.9891C22.104 16.9111 22.8333 16.5155 23.3762 15.9292C23.6112 15.678 23.9191 15.5365 24.2243 15.5365C24.3837 15.5365 24.5431 15.574 24.6916 15.6578C24.9834 15.8195 25.3156 15.9119 25.6694 15.9119C25.8234 15.9119 25.9801 15.8946 26.1421 15.8599C27.0983 15.6462 27.86 14.7654 27.9762 13.7345C28.0329 13.2262 27.9411 12.7555 27.7412 12.3627C27.6277 12.1404 27.598 11.8804 27.652 11.6234C27.7007 11.3953 27.7169 11.1585 27.698 10.9159C27.6088 9.7983 26.7526 8.92328 25.6991 8.88285C25.6721 8.88285 25.6424 8.87996 25.6154 8.87996C25.5101 8.87996 25.4101 8.88863 25.3075 8.90306C25.2427 8.91173 25.1751 8.9175 25.1076 8.9175C24.8591 8.9175 24.6187 8.84531 24.4215 8.69225C24.0758 8.42079 23.6436 8.26196 23.179 8.26196C23.1115 8.26196 23.044 8.26485 22.9764 8.27062C22.8144 8.28506 22.6577 8.3226 22.5064 8.3717C22.0283 8.03093 21.4584 7.84322 20.8426 7.84033Z" fill="#424242"/>
<path d="M9.94043 16.0502C10.0807 16.0502 10.1943 15.9287 10.1943 15.7788C10.1943 15.6289 10.0807 15.5073 9.94043 15.5073C9.8002 15.5073 9.68652 15.6289 9.68652 15.7788C9.68652 15.9287 9.8002 16.0502 9.94043 16.0502Z" fill="#E4A324"/>
<path d="M10.4051 16.7866C10.502 16.7866 10.5806 16.7025 10.5806 16.5988C10.5806 16.4952 10.502 16.4111 10.4051 16.4111C10.3081 16.4111 10.2295 16.4952 10.2295 16.5988C10.2295 16.7025 10.3081 16.7866 10.4051 16.7866Z" fill="#E4A324"/>
<path d="M9.2464 17.113C9.41646 17.113 9.55433 16.9656 9.55433 16.7838C9.55433 16.602 9.41646 16.4546 9.2464 16.4546C9.07634 16.4546 8.93848 16.602 8.93848 16.7838C8.93848 16.9656 9.07634 17.113 9.2464 17.113Z" fill="#E4A324"/>
<path d="M10.2652 17.6098C10.4398 17.6098 10.5813 17.4586 10.5813 17.272C10.5813 17.0854 10.4398 16.9341 10.2652 16.9341C10.0907 16.9341 9.94922 17.0854 9.94922 17.272C9.94922 17.4586 10.0907 17.6098 10.2652 17.6098Z" fill="#E4A324"/>
<path d="M9.07617 18.8339C9.2164 18.8339 9.33007 18.7124 9.33007 18.5625C9.33007 18.4126 9.2164 18.291 9.07617 18.291C8.93594 18.291 8.82227 18.4126 8.82227 18.5625C8.82227 18.7124 8.93594 18.8339 9.07617 18.8339Z" fill="#E4A324"/>
<path d="M9.75717 18.7708C9.88247 18.7708 9.98406 18.6622 9.98406 18.5282C9.98406 18.3943 9.88247 18.2856 9.75717 18.2856C9.63186 18.2856 9.53027 18.3943 9.53027 18.5282C9.53027 18.6622 9.63186 18.7708 9.75717 18.7708Z" fill="#E4A324"/>
<path d="M10.5111 20.4515C10.6364 20.4515 10.738 20.3429 10.738 20.2089C10.738 20.0749 10.6364 19.9663 10.5111 19.9663C10.3858 19.9663 10.2842 20.0749 10.2842 20.2089C10.2842 20.3429 10.3858 20.4515 10.5111 20.4515Z" fill="#E4A324"/>
<path d="M8.17987 21.6269C8.338 21.6269 8.46619 21.4898 8.46619 21.3208C8.46619 21.1517 8.338 21.0146 8.17987 21.0146C8.02174 21.0146 7.89355 21.1517 7.89355 21.3208C7.89355 21.4898 8.02174 21.6269 8.17987 21.6269Z" fill="#E4A324"/>
<path d="M9.88165 19.7036C10.0741 19.7036 10.2301 19.5368 10.2301 19.331C10.2301 19.1253 10.0741 18.9585 9.88165 18.9585C9.68921 18.9585 9.5332 19.1253 9.5332 19.331C9.5332 19.5368 9.68921 19.7036 9.88165 19.7036Z" fill="#E4A324"/>
<path d="M8.83034 20.7028C9.0198 20.7028 9.17338 20.5386 9.17338 20.336C9.17338 20.1334 9.0198 19.9692 8.83034 19.9692C8.64089 19.9692 8.4873 20.1334 8.4873 20.336C8.4873 20.5386 8.64089 20.7028 8.83034 20.7028Z" fill="#E4A324"/>
<path d="M9.93261 21.2167C10.0728 21.2167 10.1865 21.0952 10.1865 20.9453C10.1865 20.7954 10.0728 20.6738 9.93261 20.6738C9.79239 20.6738 9.67871 20.7954 9.67871 20.9453C9.67871 21.0952 9.79239 21.2167 9.93261 21.2167Z" fill="#E4A324"/>
<defs>
<linearGradient id="paint0_linear_42974_374031" x1="13.6417" y1="8.3101" x2="11.3414" y2="26.9929" gradientUnits="userSpaceOnUse">
<stop offset="0.0051299" stop-color="#EEEEEE"/>
<stop offset="0.2817" stop-color="#EAEAEA"/>
<stop offset="0.5766" stop-color="#DDDDDD"/>
<stop offset="0.8789" stop-color="#C8C8C8"/>
<stop offset="0.9998" stop-color="#BDBDBD"/>
</linearGradient>
<linearGradient id="paint1_linear_42974_374031" x1="13.5729" y1="8.72337" x2="11.456" y2="25.9169" gradientUnits="userSpaceOnUse">
<stop stop-color="#FFB300"/>
<stop offset="1" stop-color="#FFEA00"/>
</linearGradient>
<linearGradient id="paint2_linear_42974_374031" x1="4.00025" y1="8.64398" x2="2.40262" y2="21.6199" gradientUnits="userSpaceOnUse">
<stop offset="0.0051299" stop-color="#EEEEEE"/>
<stop offset="0.2817" stop-color="#EAEAEA"/>
<stop offset="0.5766" stop-color="#DDDDDD"/>
<stop offset="0.8789" stop-color="#C8C8C8"/>
<stop offset="0.9998" stop-color="#BDBDBD"/>
</linearGradient>
<linearGradient id="paint3_linear_42974_374031" x1="22.3438" y1="8.61388" x2="5.29301" y2="7.1564" gradientUnits="userSpaceOnUse">
<stop offset="0.0051299" stop-color="#EEEEEE"/>
<stop offset="0.4883" stop-color="#F2F2F2"/>
<stop offset="1" stop-color="white"/>
</linearGradient>
<linearGradient id="paint4_linear_42974_374031" x1="19.4468" y1="14.1175" x2="21.6176" y2="31.7488" gradientUnits="userSpaceOnUse">
<stop offset="0.0051299" stop-color="#EEEEEE"/>
<stop offset="0.2817" stop-color="#EAEAEA"/>
<stop offset="0.5766" stop-color="#DDDDDD"/>
<stop offset="0.8789" stop-color="#C8C8C8"/>
<stop offset="0.9998" stop-color="#BDBDBD"/>
</linearGradient>
<linearGradient id="paint5_linear_42974_374031" x1="19.4896" y1="14.5366" x2="21.4838" y2="30.7333" gradientUnits="userSpaceOnUse">
<stop stop-color="#FFB300"/>
<stop offset="1" stop-color="#FFEA00"/>
</linearGradient>
<linearGradient id="paint6_linear_42974_374031" x1="28.5469" y1="14.4322" x2="30.0547" y2="26.678" gradientUnits="userSpaceOnUse">
<stop offset="0.0051299" stop-color="#EEEEEE"/>
<stop offset="0.2817" stop-color="#EAEAEA"/>
<stop offset="0.5766" stop-color="#DDDDDD"/>
<stop offset="0.8789" stop-color="#C8C8C8"/>
<stop offset="0.9998" stop-color="#BDBDBD"/>
</linearGradient>
<linearGradient id="paint7_linear_42974_374031" x1="10.9325" y1="14.6783" x2="27.9833" y2="13.2209" gradientUnits="userSpaceOnUse">
<stop offset="0.0051299" stop-color="#EEEEEE"/>
<stop offset="0.4883" stop-color="#F2F2F2"/>
<stop offset="1" stop-color="white"/>
</linearGradient>
</defs>
</svg>
