<svg width="30" height="33" viewBox="0 0 30 33" fill="none" xmlns="http://www.w3.org/2000/svg">
<path d="M16.8983 32.0669C15.5783 32.0669 14.2823 31.5975 13.0396 30.6695C12.0023 29.8962 1.35161 20.2215 1.24228 20.1255C0.623609 19.5495 0.0422759 18.6882 0.796942 17.8775C1.09828 17.5522 1.47694 17.3815 1.88761 17.3815C2.35161 17.3815 2.83694 17.5922 3.25028 17.9789L7.65294 21.9175C7.73827 21.9922 7.84228 22.0295 7.94628 22.0295C8.06361 22.0295 8.18361 21.9815 8.26894 21.8882C8.43161 21.7122 8.42361 21.4375 8.25028 21.2722L1.20761 14.5015C0.815609 14.1362 0.570276 13.6962 0.519609 13.2562C0.466276 12.8162 0.607609 12.4002 0.930276 12.0562C1.23161 11.7309 1.61028 11.5602 2.02094 11.5602C2.48494 11.5602 2.97028 11.7709 3.38361 12.1575L10.5756 18.6882C10.6609 18.7655 10.7649 18.8029 10.8716 18.8029C10.9889 18.8029 11.1063 18.7549 11.1943 18.6615C11.3596 18.4855 11.3516 18.2082 11.1756 18.0429L2.52228 9.78421C2.13028 9.41888 1.88761 8.97888 1.83428 8.54155C1.78094 8.10155 1.92228 7.68555 2.24494 7.34155C2.54628 7.01621 2.92494 6.84555 3.33561 6.84555C3.79961 6.84555 4.28494 7.05621 4.69828 7.44288L13.5063 15.4429C13.5916 15.5202 13.6956 15.5575 13.8023 15.5575C13.9196 15.5575 14.0369 15.5095 14.1249 15.4189C14.2903 15.2429 14.2823 14.9655 14.1063 14.8002L7.69828 8.66155C7.01561 8.02421 6.66628 7.02421 7.41828 6.21621C7.71961 5.89088 8.09828 5.72021 8.50894 5.72021C8.97294 5.72021 9.45828 5.93088 9.87161 6.31755C12.2129 8.46155 18.3303 14.0669 18.5489 14.2829C18.7196 14.4749 18.9116 14.5175 19.0396 14.5175C19.5356 14.5175 19.7756 13.9575 19.7969 13.4029C19.8209 12.7442 19.6449 11.9282 19.4769 11.1389C19.2929 10.2775 19.1009 9.38688 19.1863 8.78421C19.3543 7.57355 20.4476 6.80021 21.1249 6.80021C21.2049 6.80021 21.2743 6.81088 21.3249 6.83488C22.3649 7.28021 22.3489 7.90421 22.2023 9.40555L22.1729 9.69888C22.0316 11.1949 22.6983 12.5629 23.3436 13.8855C23.6289 14.4722 23.9249 15.0802 24.1489 15.6935C24.2556 15.9869 24.4049 16.3202 24.5809 16.7069C25.7463 19.2882 27.6983 23.6109 22.8396 28.8669C20.8823 30.9922 18.8823 32.0669 16.8983 32.0669Z" fill="url(#paint0_radial_42974_373976)"/>
<path d="M8.50867 6.16272C8.86067 6.16272 9.23934 6.33338 9.57534 6.64538C12.89 9.68005 17.8953 14.2667 18.2287 14.5867C18.53 14.9094 18.8633 14.9574 19.0367 14.9574C19.7193 14.9574 20.1993 14.3387 20.234 13.4187C20.2607 12.704 20.0793 11.8614 19.906 11.048C19.73 10.224 19.546 9.37072 19.6207 8.84805C19.7593 7.85338 20.6713 7.24272 21.1247 7.24272H21.1567H21.1593C21.882 7.55205 21.914 7.84805 21.7647 9.36538L21.7353 9.66138C21.5833 11.28 22.2767 12.704 22.9487 14.0827C23.2313 14.6614 23.522 15.2587 23.7353 15.848C23.8473 16.1574 24.002 16.4987 24.178 16.8907C25.298 19.3734 27.1753 23.528 22.514 28.5707C20.642 30.5947 18.7513 31.6241 16.8953 31.6241C15.674 31.6241 14.4633 31.184 13.3007 30.3147C12.4527 29.6827 4.522 22.5094 1.546 19.8054C1.19134 19.4747 0.962003 19.1334 0.898003 18.8454C0.86067 18.672 0.855337 18.4587 1.11934 18.1761C1.338 17.9414 1.59667 17.8214 1.89 17.8214C2.242 17.8214 2.62067 17.9921 2.95134 18.2987C2.95667 18.3041 2.95934 18.3067 2.96467 18.3094L7.35934 22.2427C7.52734 22.392 7.738 22.4667 7.946 22.4667C8.18334 22.4667 8.418 22.3707 8.59134 22.184C8.91934 21.8321 8.90334 21.2827 8.55667 20.9494L1.514 14.184C1.51134 14.1814 1.50867 14.1787 1.50334 14.1734C1.19134 13.8827 0.99667 13.5387 0.95667 13.2027C0.919336 12.8907 1.018 12.6054 1.25267 12.3547C1.47134 12.12 1.73 12 2.02334 12C2.37534 12 2.754 12.1707 3.09267 12.4854L10.2793 19.0107C10.4473 19.1627 10.6607 19.2401 10.8713 19.2401C11.1087 19.2401 11.3433 19.1467 11.5167 18.96C11.8447 18.608 11.8287 18.056 11.4793 17.7227L2.82067 9.45605C2.34067 9.00805 1.986 8.26405 2.56734 7.63738C2.786 7.40271 3.04467 7.28271 3.338 7.28271C3.69 7.28271 4.06867 7.45338 4.40734 7.76805L13.2127 15.7654C13.3807 15.9174 13.594 15.9947 13.8047 15.9947C14.0393 15.9947 14.2767 15.9014 14.45 15.7147C14.778 15.3627 14.762 14.8107 14.4153 14.4774L7.994 8.33605C7.682 8.04538 7.48734 7.70138 7.44734 7.36538C7.41 7.05338 7.50867 6.76805 7.74334 6.51738C7.95934 6.28272 8.218 6.16272 8.50867 6.16272ZM8.50867 5.28271C7.99934 5.28271 7.50067 5.48272 7.09534 5.91738C6.23134 6.84538 6.46067 8.11205 7.39134 8.97871L13.802 15.1147L4.99667 7.11738C4.50334 6.65872 3.91134 6.40272 3.33534 6.40272C2.826 6.40272 2.32734 6.60271 1.922 7.03738C1.058 7.96538 1.28734 9.23205 2.218 10.0987L10.8687 18.3574L3.682 11.8347C3.18867 11.376 2.59667 11.12 2.02067 11.12C1.51134 11.12 1.01267 11.32 0.607337 11.7547C-0.256664 12.6827 -0.0273303 13.9494 0.903336 14.816L7.946 21.5867L3.55134 17.656C3.058 17.1974 2.466 16.9414 1.89 16.9414C1.38067 16.9414 0.882003 17.1414 0.47667 17.5761C-0.38733 18.5041 0.0153364 19.5841 0.94867 20.4507C0.94867 20.4507 11.7113 30.2267 12.778 31.0214C13.6633 31.68 15.0927 32.504 16.9007 32.504C18.6793 32.504 20.8207 31.7067 23.1673 29.168C28.9727 22.8854 25.3513 17.7041 24.5673 15.544C23.8367 13.536 22.4287 11.7467 22.6153 9.74138C22.7647 8.14405 22.9727 7.05605 21.5007 6.42938C21.3913 6.38138 21.2633 6.36005 21.1273 6.36005C20.258 6.36005 18.954 7.26138 18.7513 8.72271C18.5753 9.98405 19.4047 12.0747 19.3593 13.384C19.3487 13.7094 19.226 14.0747 19.042 14.0747C18.9887 14.0747 18.93 14.0454 18.8687 13.976C18.7513 13.8454 10.1753 5.99471 10.1753 5.99471C9.67667 5.53605 9.08467 5.28271 8.50867 5.28271Z" fill="#EDA600"/>
<path d="M16.5675 32.5599C12.5675 32.5599 10.5355 29.8666 9.68214 28.2613C9.07414 27.1173 3.79414 14.6266 3.74081 14.5013C3.53014 13.9706 3.46347 13.4826 3.55147 13.1039C3.63947 12.7173 3.88747 12.4506 4.30614 12.2826C4.50347 12.2053 4.70081 12.1653 4.89547 12.1653C5.56214 12.1653 6.17014 12.6479 6.47947 13.4266L8.76481 18.8746C8.83681 19.0426 8.99947 19.1439 9.17014 19.1439C9.22347 19.1439 9.27947 19.1333 9.33281 19.1119C9.55681 19.0239 9.66614 18.7706 9.58081 18.5466L6.12481 9.4106C5.78081 8.54127 5.89547 7.48794 6.92214 7.0826C7.11947 7.00527 7.31681 6.96527 7.51147 6.96527C8.18081 6.96527 8.78614 7.44794 9.09547 8.2266L12.7888 17.2106C12.8581 17.3813 13.0235 17.4826 13.1968 17.4826C13.2501 17.4826 13.3061 17.4719 13.3595 17.4506C13.5835 17.3626 13.6955 17.1093 13.6075 16.8853L9.33814 5.71194C8.99414 4.84527 9.10881 3.79193 10.1355 3.38393C10.3328 3.3066 10.5301 3.2666 10.7248 3.2666C11.3941 3.2666 11.9995 3.74927 12.3088 4.52793L16.8315 15.5333C16.9008 15.7039 17.0661 15.8053 17.2395 15.8053C17.2928 15.8053 17.3488 15.7946 17.4021 15.7733C17.6261 15.6853 17.7381 15.4319 17.6528 15.2079L14.4901 6.91994C14.1461 6.0506 14.2608 4.99993 15.2875 4.59193C15.4848 4.5146 15.6821 4.4746 15.8768 4.4746C16.5461 4.4746 17.1515 4.95727 17.4608 5.73593C18.6555 8.67727 21.7781 16.3626 21.8795 16.6533C21.9808 17.0026 22.2555 17.1306 22.4741 17.1306C22.9621 17.1306 23.2928 16.5653 23.3835 16.3919C23.6528 15.8746 23.7275 15.2826 23.8048 14.6586C23.9168 13.7546 24.0341 12.8186 24.7701 12.0133C25.3808 11.3439 26.1648 10.9599 26.9141 10.9599C27.2715 10.9599 27.5941 11.0479 27.8421 11.2133C28.4608 11.6266 28.4928 12.0266 28.4421 12.3626C28.3515 12.9653 27.8768 13.7413 27.4261 14.4186C26.4981 15.8106 26.3888 17.9199 26.2928 19.7813C26.2635 20.3306 26.2368 20.8479 26.1915 21.3279C26.1541 21.7253 26.1675 22.2026 26.1861 22.7519C26.2715 25.5413 26.4021 29.7546 20.3088 31.8639C18.9861 32.3279 17.7275 32.5599 16.5675 32.5599Z" fill="url(#paint1_radial_42974_373976)"/>
<path d="M10.7221 3.70933C11.2048 3.70933 11.6554 4.08533 11.9008 4.70399L16.4208 15.704C16.5594 16.0453 16.8901 16.2507 17.2368 16.2507C17.3434 16.2507 17.4554 16.232 17.5594 16.1893C18.0074 16.0107 18.2288 15.5067 18.0581 15.056L14.8981 6.75199C14.7408 6.35466 14.7141 5.95999 14.8208 5.63999C14.9194 5.34133 15.1328 5.12799 15.4501 5.00266C15.5968 4.94399 15.7408 4.91466 15.8768 4.91466C16.3594 4.91466 16.8101 5.29066 17.0528 5.90666C18.7461 10.072 21.2981 16.3627 21.4608 16.7947C21.6128 17.2693 22.0074 17.5733 22.4714 17.5733C23.2074 17.5733 23.6528 16.8267 23.7728 16.5973C24.0794 16.008 24.1621 15.352 24.2394 14.7173C24.3488 13.8427 24.4528 13.016 25.0928 12.3147C25.6208 11.736 26.2848 11.4027 26.9114 11.4027C27.1781 11.4027 27.4208 11.4667 27.5941 11.5813C28.0288 11.872 28.0368 12.0773 28.0048 12.2987C27.9274 12.8187 27.4581 13.576 27.0554 14.176C26.0608 15.6693 25.9488 17.8427 25.8474 19.76C25.8181 20.304 25.7914 20.8187 25.7488 21.288C25.7088 21.712 25.7221 22.2027 25.7408 22.768C25.7834 24.112 25.8341 25.7867 25.1568 27.3707C24.3621 29.2267 22.7274 30.56 20.1594 31.4507C18.8848 31.8933 17.6741 32.1173 16.5621 32.1173C12.7914 32.1173 10.8741 29.5707 10.0661 28.0533C9.56743 27.12 5.6261 17.8453 4.1461 14.3387C3.62877 13.024 4.25543 12.7733 4.46343 12.6907C4.6101 12.632 4.7541 12.6027 4.8901 12.6027C5.37276 12.6027 5.82343 12.9787 6.06343 13.5867L6.07143 13.6027L8.3541 19.04C8.49543 19.376 8.82076 19.5813 9.16743 19.5813C9.27676 19.5813 9.3861 19.56 9.49276 19.5173C9.9381 19.3387 10.1594 18.8373 9.99143 18.3867L6.53543 9.25333C6.53276 9.24799 6.53276 9.24533 6.5301 9.23999C6.37276 8.84266 6.3461 8.44799 6.45276 8.12799C6.55143 7.82933 6.76476 7.61599 7.0821 7.49066C7.22876 7.43199 7.37277 7.40266 7.50876 7.40266C7.99143 7.40266 8.4421 7.77866 8.68743 8.39733L12.3781 17.376C12.5168 17.7173 12.8474 17.9227 13.1941 17.9227C13.3034 17.9227 13.4128 17.9013 13.5194 17.8613C13.9674 17.6827 14.1888 17.1787 14.0181 16.728L9.74343 5.54399C9.50076 4.93333 9.50076 4.10933 10.2954 3.79466C10.4394 3.73866 10.5834 3.70933 10.7221 3.70933ZM10.7221 2.82666C10.4794 2.82666 10.2261 2.87466 9.9701 2.97599C8.79143 3.44266 8.45543 4.68533 8.92476 5.86933L13.1941 17.0427L9.50343 8.06399C9.13543 7.13866 8.38343 6.52266 7.51143 6.52266C7.26876 6.52266 7.01543 6.57066 6.75943 6.67199C5.58076 7.13866 5.24476 8.38133 5.7141 9.56533L9.1701 18.704L6.88743 13.2667C6.51943 12.3413 5.76743 11.7253 4.89543 11.7253C4.65276 11.7253 4.39943 11.7733 4.14343 11.8747C2.96477 12.3413 2.8661 13.4907 3.33543 14.6747C3.33543 14.6747 8.66876 27.296 9.29543 28.472C10.2901 30.3413 12.5168 33 16.5674 33C17.7114 33 19.0021 32.7893 20.4528 32.2853C28.0874 29.6427 26.4154 23.6587 26.6314 21.3733C26.8341 19.2453 26.6768 16.344 27.7941 14.6667C28.9674 12.904 29.4181 11.736 28.0874 10.848C27.7701 10.6373 27.3621 10.52 26.9141 10.52C26.1221 10.52 25.2048 10.8827 24.4448 11.7173C23.0954 13.1973 23.5968 15.0267 22.9914 16.1893C22.8581 16.4453 22.6368 16.6907 22.4714 16.6907C22.3968 16.6907 22.3328 16.64 22.2954 16.512C22.2448 16.344 17.8661 5.57066 17.8661 5.57066C17.4981 4.64533 16.7461 4.02933 15.8741 4.02933C15.6314 4.02933 15.3781 4.07733 15.1221 4.17866C13.9434 4.64533 13.6074 5.88799 14.0768 7.07199L17.2341 15.3653L12.7141 4.36799C12.3488 3.44266 11.5968 2.82666 10.7221 2.82666Z" fill="#EDA600"/>
<path d="M24.0684 8.04831L28.5724 6.28564" stroke="#B0BEC5" stroke-width="1.82647" stroke-miterlimit="10" stroke-linecap="round" stroke-linejoin="round"/>
<path d="M19.8608 5.30667L19.4688 1" stroke="#B0BEC5" stroke-width="1.82647" stroke-miterlimit="10" stroke-linecap="round" stroke-linejoin="round"/>
<path d="M22.7432 5.82676L25.7325 1.39209" stroke="#B0BEC5" stroke-width="1.82647" stroke-miterlimit="10" stroke-linecap="round" stroke-linejoin="round"/>
<defs>
<radialGradient id="paint0_radial_42974_373976" cx="0" cy="0" r="1" gradientUnits="userSpaceOnUse" gradientTransform="translate(7.30462 12.2082) rotate(-47.026) scale(22.9133)">
<stop offset="0.6" stop-color="#FFB300"/>
<stop offset="0.8984" stop-color="#FFCA28"/>
</radialGradient>
<radialGradient id="paint1_radial_42974_373976" cx="0" cy="0" r="1" gradientUnits="userSpaceOnUse" gradientTransform="translate(12.8106 10.014) rotate(-21.6163) scale(23.2887)">
<stop offset="0.3533" stop-color="#FFCA28"/>
<stop offset="0.8723" stop-color="#FFB300"/>
</radialGradient>
</defs>
</svg>
