<svg width="16" height="16" viewBox="0 0 16 16" fill="none" xmlns="http://www.w3.org/2000/svg">
<rect width="16" height="16" rx="8" fill="#F05B51"/>
<path d="M8.70727 7.64634L8.35361 8.00001L8.70739 8.35356L11.6779 11.3222C11.6779 11.3222 11.6779 11.3222 11.678 11.3223C11.678 11.3223 11.678 11.3223 11.678 11.3223C11.7251 11.3694 11.7515 11.4333 11.7515 11.4999C11.7515 11.5665 11.725 11.6305 11.6779 11.6776C11.6308 11.7247 11.5669 11.7512 11.5002 11.7512C11.4336 11.7512 11.3696 11.7247 11.3225 11.6776L8.35376 8.70884L8.0002 8.35529L7.64665 8.70884L4.6779 11.6776C4.63077 11.7247 4.56685 11.7512 4.5002 11.7512C4.43355 11.7512 4.36963 11.7247 4.32251 11.6776C4.27538 11.6305 4.2489 11.5665 4.2489 11.4999C4.2489 11.4332 4.27538 11.3693 4.32251 11.3222L7.29126 8.35345L7.64481 7.9999L7.29126 7.64634L4.32251 4.67759C4.27538 4.63047 4.2489 4.56655 4.2489 4.4999C4.2489 4.43325 4.27538 4.36933 4.32251 4.3222C4.36963 4.27507 4.43355 4.2486 4.5002 4.2486C4.56685 4.2486 4.63077 4.27507 4.6779 4.3222L7.64665 7.29095L8.0002 7.6445L8.35376 7.29095L11.3222 4.32251C11.3222 4.32249 11.3222 4.32246 11.3223 4.32243C11.3693 4.27552 11.4331 4.2492 11.4995 4.24926C11.566 4.24932 11.6297 4.27578 11.6766 4.32283C11.7236 4.36987 11.75 4.43364 11.7499 4.50012C11.7498 4.56659 11.7234 4.63032 11.6763 4.67728L11.676 4.67759L8.70727 7.64634Z" fill="black" stroke="white"/>
</svg>
