<svg width="32" height="32" viewBox="0 0 32 32" fill="none" xmlns="http://www.w3.org/2000/svg">
<path d="M16 31.2462C8.30345 31.2462 0 26.3778 0 15.6949C0 5.01204 8.30345 0.143555 16 0.143555C20.2759 0.143555 24.2207 1.56237 27.1448 4.14963C30.3172 6.98726 32 10.9933 32 15.6949C32 20.3965 30.3172 24.3747 27.1448 27.2124C24.2207 29.7996 20.2483 31.2462 16 31.2462Z" fill="url(#paint0_radial_42974_374000)"/>
<path d="M16 31.2462C8.30345 31.2462 0 26.3778 0 15.6949C0 5.01204 8.30345 0.143555 16 0.143555C20.2759 0.143555 24.2207 1.56237 27.1448 4.14963C30.3172 6.98726 32 10.9933 32 15.6949C32 20.3965 30.3172 24.3747 27.1448 27.2124C24.2207 29.7996 20.2483 31.2462 16 31.2462Z" fill="url(#paint1_linear_42974_374000)"/>
<path d="M29.211 6.4502C30.6814 8.84271 31.4483 11.6915 31.4483 14.8602C31.4483 19.5617 29.7655 23.54 26.5931 26.3776C23.669 28.9649 19.6965 30.4115 15.4483 30.4115C10.4662 30.4115 5.24136 28.3667 2.15723 24.0296C5.1255 28.9426 10.709 31.2461 16 31.2461C20.2483 31.2461 24.2207 29.7995 27.1448 27.2122C30.3172 24.3746 32 20.3963 32 15.6948C32 12.1505 31.0427 9.00128 29.211 6.4502Z" fill="#EB8F00"/>
<path opacity="0.66" d="M0.243164 19.0918C0.519026 18.3657 1.73834 18.3545 2.64041 18.7941C4.38661 19.6482 4.17972 21.5177 5.0542 21.8904C5.92868 22.2632 8.69006 19.9792 12.5714 19.6175C13.0073 19.5758 15.5811 19.2503 15.8349 20.3409C15.9342 20.7721 15.2059 20.8555 15.2059 20.8555C13.628 21.4453 12.0225 22.0462 10.6101 22.9782C9.0073 24.0326 7.60592 25.5237 5.74385 25.9633C5.01834 26.133 4.19903 26.1079 3.60868 25.6545C2.87489 25.0981 2.71213 24.0771 2.44454 23.1896C2.13834 22.1742 1.63351 21.2283 0.965923 20.4076" fill="url(#paint2_linear_42974_374000)"/>
<path d="M0.209166 19.0886C-0.292903 19.7035 0.774683 21.3365 0.965028 22.1683C1.42296 24.1769 0.965028 24.6721 0.929166 26.4581C0.898821 28.4222 1.48089 30.0747 2.96503 31.1291C4.36089 32.1279 5.89744 32.2419 8.04917 31.6021C10.2009 30.9622 11.6547 30.6534 11.765 29.5851C11.8257 29.1428 11.594 28.7088 11.1912 28.5196C11.4064 28.4167 11.5774 28.2414 11.674 28.0216C12.1871 26.7864 11.1636 26.5249 11.1636 26.5249C11.3043 26.3552 11.423 26.1688 11.5168 25.9685C11.823 25.3537 11.7733 24.5191 10.8905 24.2465C10.485 24.1213 10.3747 24.188 10.3747 24.188C10.794 23.7541 11.2961 23.4063 11.8505 23.1726C13.3347 22.53 15.0947 22.1405 15.5333 21.7649C16.1705 21.2085 16.2092 20.1375 15.0836 19.8175C13.4671 19.339 10.4933 20.4518 8.68365 21.6119C6.87399 22.772 5.2133 23.398 4.66158 23.1865C4.10986 22.9751 3.76779 22.6301 3.55813 21.7955C3.16917 20.2432 2.86848 19.6423 2.20917 19.0608C1.66296 18.5879 0.595373 18.6157 0.209166 19.0886Z" fill="url(#paint3_radial_42974_374000)"/>
<path d="M9.1809 25.12C9.1809 25.12 8.77538 24.8418 10.3947 23.537C11.4981 22.644 12.1354 22.4826 13.4568 22.146C16.1271 21.4867 15.9588 20.6382 15.9588 20.6382C16.1023 21.8873 14.8775 22.1655 13.9809 22.4493C13.8871 22.4771 13.7988 22.5132 13.705 22.5355C10.6347 23.3256 9.56159 25.3676 9.1809 25.12Z" fill="url(#paint4_linear_42974_374000)"/>
<path d="M11.697 28.2166C11.937 27.816 12.0032 27.3292 11.8763 26.8785C11.7881 26.6142 11.6198 26.3833 11.3908 26.2247C11.4239 26.1802 11.457 26.1385 11.4874 26.0884C11.7329 25.7017 11.7688 25.2148 11.5839 24.7948C11.3743 24.4637 11.0322 24.2439 10.6488 24.1938C10.9108 24.3218 11.1067 24.5583 11.1839 24.8421C11.2281 25.1842 11.1784 25.5348 11.046 25.8519C10.8695 26.2859 10.475 26.5891 10.0143 26.6503C9.34669 26.7839 9.55083 27.0621 9.55083 27.0621C9.60876 27.2846 10.3977 27.0788 10.9963 26.6281C11.1646 26.7171 11.2915 26.8701 11.3522 27.051C11.4157 27.3319 11.377 27.6296 11.2446 27.8856C11.0598 28.2945 10.7012 28.6005 10.2708 28.7202C9.67773 28.8843 9.84049 29.1041 9.84049 29.1041C9.84049 29.1041 9.86807 29.577 11.0874 28.798C11.2308 29.0762 11.4212 29.6966 11.0405 30.0972C9.74945 31.4688 5.94531 31.9973 5.94531 31.9973C7.87635 31.9973 10.5301 31.2462 11.3522 30.5591C11.6722 30.3059 11.8598 29.922 11.8626 29.513C11.8984 29.1319 11.7577 28.7535 11.4846 28.4865C11.5619 28.403 11.6336 28.314 11.697 28.2166Z" fill="url(#paint5_linear_42974_374000)"/>
<path d="M19.6604 18.0343C19.5721 18.0176 19.4894 17.9814 19.4204 17.923C18.1763 16.9159 16.6921 16.2594 15.1169 16.0145C13.5418 15.7391 11.9252 15.8893 10.4273 16.4485C10.3445 16.4819 10.2563 16.493 10.168 16.4791C9.97488 16.4457 9.81764 16.3011 9.76522 16.1091C9.71281 15.92 9.77626 15.7196 9.92522 15.5945C12.8494 13.1463 17.1859 13.5525 19.6135 16.5014C19.8121 16.7434 19.9942 16.9994 20.1597 17.2637C20.2645 17.4278 20.2645 17.6392 20.1597 17.8034C20.0521 17.9731 19.8563 18.0621 19.6604 18.0343Z" fill="#422B0D"/>
<path d="M20.7362 6.85059C21.8921 6.85059 22.9431 7.83541 22.9431 9.47122C22.9431 11.107 21.8921 12.0891 20.7362 12.0891C19.5803 12.0891 18.5293 11.1043 18.5293 9.47122C18.5293 7.83819 19.5803 6.85059 20.7362 6.85059Z" fill="#422B0D"/>
<path d="M11.1835 4.31641C10.0276 4.31641 8.97656 5.30123 8.97656 6.93426C8.97656 8.56729 10.0276 9.5549 11.1835 9.5549C12.3421 9.5549 13.3904 8.57008 13.3904 6.93426C13.3904 5.29845 12.3421 4.31641 11.1835 4.31641Z" fill="#422B0D"/>
<path d="M9.41498 1.15326C9.29085 0.947394 9.27429 0.691451 9.37085 0.471673C9.47567 0.251896 9.68257 0.101668 9.92257 0.071066C11.426 -0.165404 12.9598 0.193474 14.2067 1.0698C14.6729 1.39251 15.0867 1.78199 15.4371 2.22989C15.4591 2.25771 15.4784 2.28832 15.4977 2.3217C15.6853 2.61659 15.6219 3.00607 15.3515 3.22585C15.0619 3.46788 14.6371 3.45953 14.3584 3.20359L14.4743 3.01442L14.3336 3.18134C13.1253 2.16313 11.6136 1.58169 10.0412 1.53439C9.77912 1.53439 9.53636 1.3953 9.40395 1.16717L9.41498 1.15326Z" fill="#422B0D"/>
<path d="M24.1109 6.13029C24.315 6.01623 24.4529 5.80758 24.4805 5.57389C24.4971 5.33186 24.395 5.09817 24.2046 4.95072C23.0102 3.99094 21.4929 3.53191 19.9729 3.67657C19.4102 3.72386 18.8584 3.8574 18.3343 4.07161L18.235 4.11891C17.9288 4.28304 17.7936 4.65305 17.9205 4.97854C18.0557 5.33186 18.4226 5.53216 18.7895 5.45148V5.22892L18.8281 5.44592C20.3729 5.15659 21.9702 5.39862 23.3633 6.13307C23.5922 6.26382 23.8709 6.26382 24.0998 6.13307L24.1109 6.13029Z" fill="#422B0D"/>
<defs>
<radialGradient id="paint0_radial_42974_374000" cx="0" cy="0" r="1" gradientUnits="userSpaceOnUse" gradientTransform="translate(16 15.6949) scale(15.713 15.8462)">
<stop offset="0.5" stop-color="#FDE030"/>
<stop offset="0.92" stop-color="#F7C02B"/>
<stop offset="1" stop-color="#F4A223"/>
</radialGradient>
<linearGradient id="paint1_linear_42974_374000" x1="16" y1="31.2462" x2="16" y2="0.143555" gradientUnits="userSpaceOnUse">
<stop stop-color="#F4A223"/>
<stop offset="0.08" stop-color="#F7C02B"/>
<stop offset="0.54" stop-color="#FDE030" stop-opacity="0"/>
</linearGradient>
<linearGradient id="paint2_linear_42974_374000" x1="8.10341" y1="27.7994" x2="8.03327" y2="18.5131" gradientUnits="userSpaceOnUse">
<stop stop-color="#BF360C"/>
<stop offset="1" stop-color="#BF360C" stop-opacity="0.2"/>
</linearGradient>
<radialGradient id="paint3_radial_42974_374000" cx="0" cy="0" r="1" gradientUnits="userSpaceOnUse" gradientTransform="translate(9.88917 21.373) scale(16.3338 15.4839)">
<stop offset="0.27" stop-color="#FFF176"/>
<stop offset="1" stop-color="#FFC400"/>
</radialGradient>
<linearGradient id="paint4_linear_42974_374000" x1="9.29161" y1="24.5226" x2="16.2637" y2="21.0892" gradientUnits="userSpaceOnUse">
<stop offset="0.13" stop-color="#DA6727"/>
<stop offset="1" stop-color="#FFC400"/>
</linearGradient>
<linearGradient id="paint5_linear_42974_374000" x1="8.93265" y1="31.4326" x2="8.99157" y2="20.8694" gradientUnits="userSpaceOnUse">
<stop offset="0.13" stop-color="#DA6727"/>
<stop offset="1" stop-color="#FFC400"/>
</linearGradient>
</defs>
</svg>
