<svg width="14" height="16" viewBox="0 0 14 16" fill="none" xmlns="http://www.w3.org/2000/svg">
<path d="M11.6358 4.36353C11.443 4.36353 11.258 4.44014 11.1216 4.57653C10.9852 4.71291 10.9086 4.89789 10.9086 5.09076V13.2293C10.8877 13.597 10.7224 13.9416 10.4486 14.188C10.1748 14.4344 9.81476 14.5627 9.44685 14.5448H3.64351C3.2756 14.5627 2.91554 14.4344 2.64175 14.188C2.36796 13.9416 2.20263 13.597 2.18177 13.2293V5.09076C2.18177 4.89789 2.10515 4.71291 1.96876 4.57653C1.83238 4.44014 1.64741 4.36353 1.45453 4.36353C1.26166 4.36353 1.07668 4.44014 0.940297 4.57653C0.803914 4.71291 0.727295 4.89789 0.727295 5.09076V13.2293C0.748053 13.9828 1.06661 14.6975 1.6132 15.2167C2.15979 15.7359 2.88986 16.0173 3.64351 15.9993H9.44685C10.2005 16.0173 10.9306 15.7359 11.4772 15.2167C12.0238 14.6975 12.3423 13.9828 12.3631 13.2293V5.09076C12.3631 4.89789 12.2864 4.71291 12.1501 4.57653C12.0137 4.44014 11.8287 4.36353 11.6358 4.36353Z" fill="#EC2323"/>
<path d="M12.363 2.18171H9.45407V0.727236C9.45407 0.534361 9.37745 0.349386 9.24106 0.213002C9.10468 0.0766192 8.9197 0 8.72683 0H4.36341C4.17054 0 3.98556 0.0766192 3.84918 0.213002C3.7128 0.349386 3.63618 0.534361 3.63618 0.727236V2.18171H0.727236C0.534361 2.18171 0.349386 2.25833 0.213002 2.39471C0.0766192 2.53109 0 2.71607 0 2.90894C0 3.10182 0.0766192 3.28679 0.213002 3.42318C0.349386 3.55956 0.534361 3.63618 0.727236 3.63618H12.363C12.5559 3.63618 12.7409 3.55956 12.8772 3.42318C13.0136 3.28679 13.0902 3.10182 13.0902 2.90894C13.0902 2.71607 13.0136 2.53109 12.8772 2.39471C12.7409 2.25833 12.5559 2.18171 12.363 2.18171V2.18171ZM5.09065 2.18171V1.45447H7.99959V2.18171H5.09065Z" fill="#EC2323"/>
<path d="M5.818 11.6358V6.54511C5.818 6.35223 5.74138 6.16726 5.60499 6.03087C5.46861 5.89449 5.28364 5.81787 5.09076 5.81787C4.89789 5.81787 4.71291 5.89449 4.57653 6.03087C4.44014 6.16726 4.36353 6.35223 4.36353 6.54511V11.6358C4.36353 11.8286 4.44014 12.0136 4.57653 12.15C4.71291 12.2864 4.89789 12.363 5.09076 12.363C5.28364 12.363 5.46861 12.2864 5.60499 12.15C5.74138 12.0136 5.818 11.8286 5.818 11.6358Z" fill="#EC2323"/>
<path d="M8.45447 11.8179V6.72724C8.45447 6.53436 8.37785 6.34939 8.24147 6.213C8.10509 6.07662 7.92011 6 7.72724 6C7.53436 6 7.34939 6.07662 7.213 6.213C7.07662 6.34939 7 6.53436 7 6.72724V11.8179C7 12.0108 7.07662 12.1957 7.213 12.3321C7.34939 12.4685 7.53436 12.5451 7.72724 12.5451C7.92011 12.5451 8.10509 12.4685 8.24147 12.3321C8.37785 12.1957 8.45447 12.0108 8.45447 11.8179Z" fill="#EC2323"/>
</svg>
