<svg width="36" height="36" viewBox="0 0 36 36" fill="none" xmlns="http://www.w3.org/2000/svg">
<circle cx="18" cy="18" r="18" fill="#F4F4F4"/>
<path d="M11 23.3442C11.0352 23.0194 11.0628 22.6935 11.1073 22.37C11.2418 21.3895 11.4757 20.442 12.0073 19.594C12.6755 18.5284 13.6415 18.0155 14.8682 18.0141C15.0548 18.0141 15.2535 18.1182 15.4257 18.2134C15.8589 18.4529 16.2626 18.7541 16.7096 18.9602C18.0423 19.5744 19.3349 19.4292 20.5727 18.6624C20.7589 18.5471 20.9532 18.4405 21.1256 18.3062C21.5289 17.9919 21.9732 17.9684 22.451 18.0524C23.5925 18.2532 24.3801 18.918 24.9097 19.9435C25.3678 20.8302 25.5537 21.7892 25.6576 22.7712C25.69 23.0784 25.7065 23.3875 25.73 23.6958V24.1528C25.719 24.2094 25.7017 24.2657 25.6976 24.323C25.6148 25.5187 24.8955 26.4577 23.7699 26.817C23.5101 26.9 23.2372 26.9404 22.9702 27.0002H13.7598C13.6256 26.9756 13.4917 26.9482 13.3569 26.9264C12.2381 26.746 11.3533 25.9184 11.0918 24.8039C11.0576 24.6584 11.0304 24.5107 11 24.3638C11 24.0238 11 23.6842 11 23.3442ZM18.3662 25.5004C18.3662 25.5025 18.3662 25.5043 18.3662 25.5064C19.4239 25.5064 20.4812 25.5074 21.5389 25.5057C21.9815 25.505 22.4248 25.5159 22.866 25.4899C23.5967 25.4466 24.2859 25.0233 24.247 24.0098C24.2238 23.4086 24.1849 22.8053 24.1031 22.2101C24.0082 21.5168 23.8016 20.8537 23.3966 20.2708C23.0934 19.8345 22.6808 19.5853 22.165 19.5185C22.0778 19.5072 21.9719 19.5367 21.8936 19.5817C21.6638 19.7139 21.4479 19.8707 21.2188 20.0043C19.8686 20.7915 18.4445 21.0439 16.9242 20.6224C16.1594 20.4104 15.485 20.0184 14.8271 19.5846C14.7492 19.5332 14.6315 19.5069 14.5405 19.5216C14.3666 19.5501 14.1927 19.6011 14.0299 19.6696C13.5293 19.8806 13.2416 20.3056 13.0315 20.7827C12.5358 21.9095 12.4199 23.1052 12.4924 24.3205C12.5227 24.83 12.8249 25.1903 13.2989 25.3615C13.5169 25.4403 13.7567 25.4923 13.9871 25.4941C15.4467 25.5057 16.9066 25.5001 18.3666 25.5001L18.3662 25.5004Z" fill="#333333"/>
<path d="M18.6922 9C18.9106 9.04395 19.1324 9.07559 19.3469 9.1336C20.4909 9.44403 21.3064 10.1851 21.878 11.211C22.7553 12.7846 22.6307 15.0435 21.3733 16.5391C19.903 18.2881 17.4624 18.5078 15.7865 16.9877C14.6118 15.922 14.1544 14.5583 14.3052 12.9777C14.4394 11.5703 15.1007 10.4706 16.2284 9.6599C16.7255 9.3027 17.2847 9.10231 17.8898 9.03375C17.9281 9.02953 17.9646 9.0116 18.0019 9C18.232 9 18.4617 9 18.6918 9H18.6922ZM20.9766 13.3855C20.9769 12.5508 20.6382 11.7651 20.0079 11.1562C19.0689 10.2484 17.4268 10.2055 16.4254 11.4663C15.4291 12.7207 15.5102 14.6167 16.631 15.7621C17.5983 16.7507 19.0648 16.7683 20.0497 15.7972C20.6813 15.1743 20.9856 14.4085 20.9769 13.3858L20.9766 13.3855Z" fill="#333333"/>
</svg>
