<svg width="20" height="20" viewBox="0 0 20 20" fill="none" xmlns="http://www.w3.org/2000/svg">
<g clip-path="url(#clip0_42893_246178)">
<path d="M18.6265 11.4559L17.8396 10.828C17.3006 10.3979 17.3016 9.59858 17.8396 9.16936L18.6265 8.54152C19.1864 8.09468 19.3297 7.32848 18.967 6.71958L17.4133 4.11115C17.0506 3.5023 16.2942 3.23946 15.6151 3.48603L14.6606 3.8326C14.0069 4.06995 13.2932 3.66964 13.1786 3.00328L13.0111 2.02882C12.8918 1.33537 12.2788 0.832031 11.5534 0.832031H8.44595C7.72057 0.832031 7.10753 1.33537 6.9883 2.02885L6.82073 3.00328C6.70596 3.67083 5.99124 4.06954 5.33871 3.83264L4.38428 3.48603C3.70514 3.23946 2.94883 3.50232 2.58608 4.11115L1.03235 6.71954C0.669681 7.32836 0.812873 8.0946 1.3729 8.54148L2.15975 9.16933C2.69883 9.59944 2.69777 10.3987 2.15975 10.828L1.37286 11.4558C0.812873 11.9027 0.669642 12.6689 1.03232 13.2778L2.58608 15.8862C2.94879 16.495 3.70496 16.7579 4.38428 16.5113L5.33867 16.1647C5.99253 15.9273 6.70614 16.3279 6.82069 16.9941L6.98826 17.9685C7.10753 18.662 7.72057 19.1654 8.44591 19.1654H11.5534C12.2788 19.1654 12.8918 18.662 13.011 17.9685L13.1785 16.9941C13.2933 16.3268 14.008 15.9278 14.6606 16.1648L15.6151 16.5114C16.2944 16.758 17.0506 16.4951 17.4133 15.8862L18.9671 13.2778C19.3297 12.6689 19.1864 11.9027 18.6265 11.4559ZM16.1335 15.1701L15.1791 14.8235C13.6534 14.2695 11.9883 15.2042 11.721 16.7586L11.5534 17.7331H8.44595L8.27836 16.7586C8.01057 15.2011 6.34306 14.2706 4.82028 14.8235L3.86585 15.1701L2.31212 12.5617L3.09898 11.9338C4.35685 10.9302 4.35424 9.06517 3.09898 8.06356L2.31212 7.43572L3.86587 4.8273L4.82028 5.17389C6.34604 5.72783 8.01108 4.79325 8.27836 3.23874L8.44591 2.26432H11.5534L11.721 3.23874C11.9888 4.79644 13.6564 5.72666 15.179 5.17389L16.1335 4.8273L17.6876 7.43536L16.9004 8.06352C15.6425 9.06713 15.645 10.9322 16.9003 11.9338L17.6872 12.5616L16.1335 15.1701Z" fill="#F15A22"/>
<path d="M11.7374 7.71419L9.19571 10.2551L8.21087 9.4354C8.05545 9.31895 7.86124 9.26662 7.66836 9.28923C7.47549 9.31184 7.29865 9.40768 7.17438 9.55693C7.05014 9.70617 6.98794 9.89744 7.00065 10.0912C7.01334 10.285 7.1 10.4665 7.24269 10.5983L8.75783 11.8604C8.90304 11.9814 9.08822 12.0437 9.27702 12.0351C9.46583 12.0266 9.64461 11.9478 9.77828 11.8142L12.8086 8.78389C12.9466 8.64099 13.023 8.44964 13.0212 8.25101C13.0195 8.05236 12.9398 7.86235 12.7994 7.72191C12.6589 7.58144 12.4689 7.50176 12.2703 7.50003C12.0716 7.49831 11.8803 7.57466 11.7374 7.71266V7.71419Z" fill="#F15A22"/>
</g>
<defs>
<clipPath id="clip0_42893_246178">
<rect width="20" height="20" fill="white"/>
</clipPath>
</defs>
</svg>
