<svg width="24" height="24" fill="#000000" viewBox="0 0 32.31 32.31" xmlns="http://www.w3.org/2000/svg"><g id="SVGRepo_bgCarrier" stroke-width="0"></g><g id="SVGRepo_tracerCarrier" stroke-linecap="round" stroke-linejoin="round"></g><g id="SVGRepo_iconCarrier"> <g transform="translate(-672.963 -578.359)"> <path d="M701.213,580.359a2.062,2.062,0,0,1,2.06,2.06v24.19a2.062,2.062,0,0,1-2.06,2.06h-24.19a2.062,2.062,0,0,1-2.06-2.06v-24.19a2.062,2.062,0,0,1,2.06-2.06h24.19m0-2h-24.19a4.06,4.06,0,0,0-4.06,4.06v24.19a4.06,4.06,0,0,0,4.06,4.06h24.19a4.06,4.06,0,0,0,4.06-4.06v-24.19a4.059,4.059,0,0,0-4.06-4.06Z"></path> <path d="M685.228,601.626h-.075a2.549,2.549,0,0,1-1.826-.855l-4.638-5.232a1,1,0,1,1,1.5-1.326l4.638,5.232a.541.541,0,0,0,.389.182.6.6,0,0,0,.4-.158l12.48-12.48a1,1,0,0,1,1.414,1.414l-12.48,12.48A2.554,2.554,0,0,1,685.228,601.626Z"></path> </g> </g></svg>