<svg width="34" height="34" viewBox="0 0 34 34" fill="none" xmlns="http://www.w3.org/2000/svg">
<rect width="34" height="34" rx="16" fill="url(#paint0_linear_621_6781)"/>
<rect x="1.96158" y="1.96143" width="30.0769" height="30.0769" rx="14" fill="white" fill-opacity="0.2"/>
<path d="M19.2037 18.2593H18.7063L18.53 18.0893C19.2856 17.2078 19.6759 16.0053 19.4619 14.7271C19.1659 12.9767 17.7052 11.579 15.9422 11.3649C13.2789 11.0375 11.0374 13.279 11.3648 15.9423C11.5789 17.7053 12.9767 19.166 14.727 19.4619C16.0052 19.676 17.2078 19.2856 18.0893 18.5301L18.2593 18.7064V19.2038L20.9352 21.8797C21.1933 22.1378 21.6152 22.1378 21.8733 21.8797C22.1315 21.6215 22.1315 21.1997 21.8733 20.9415L19.2037 18.2593ZM15.4259 18.2593C13.8582 18.2593 12.5926 16.9938 12.5926 15.426C12.5926 13.8582 13.8582 12.5927 15.4259 12.5927C16.9937 12.5927 18.2593 13.8582 18.2593 15.426C18.2593 16.9938 16.9937 18.2593 15.4259 18.2593Z" fill="white"/>
<defs>
<linearGradient id="paint0_linear_621_6781" x1="17" y1="0" x2="17" y2="34" gradientUnits="userSpaceOnUse">
<stop stop-color="#FF9263"/>
<stop offset="1" stop-color="#FF5A9B"/>
</linearGradient>
</defs>
</svg>
