<svg width="16" height="16" viewBox="0 0 16 16" fill="none" xmlns="http://www.w3.org/2000/svg">
<path d="M12.0002 16.0003C11.9335 16.0003 11.8668 15.9869 11.8042 15.9603C11.6495 15.8943 8.00012 14.3049 8.00012 11.0362V8.35751C8.00012 8.14351 8.13612 7.95351 8.33946 7.88417L11.8395 6.69349C11.9435 6.65816 12.0568 6.65816 12.1608 6.69349L15.6609 7.88417C15.8642 7.95351 16.0002 8.14351 16.0002 8.35751V11.0362C16.0002 14.3049 12.3508 15.8943 12.1962 15.9609C12.1335 15.9869 12.0668 16.0003 12.0002 16.0003ZM9.00013 8.71551V11.0355C9.00013 13.2576 11.3042 14.5936 12.0002 14.9456C12.6962 14.5936 15.0002 13.2576 15.0002 11.0355V8.71551L12.0002 7.69484L9.00013 8.71551Z" fill="#888888"/>
<path d="M11.8334 12.9997C11.7014 12.9997 11.5734 12.9477 11.4801 12.853L10.1467 11.5197C9.95141 11.3243 9.95141 11.0076 10.1467 10.8123C10.3421 10.617 10.6588 10.617 10.8541 10.8123L11.7801 11.7383L13.4334 9.53296C13.5974 9.31229 13.9121 9.26696 14.1335 9.43363C14.3541 9.59896 14.3988 9.9123 14.2328 10.1336L12.2328 12.8003C12.1461 12.9163 12.0134 12.9883 11.8681 12.999C11.8568 12.999 11.8454 12.9997 11.8334 12.9997Z" fill="#888888"/>
<path d="M7.06007 14.0001H1.83335C0.822009 14.0001 0 13.1781 0 12.1668V1.83335C0 0.822009 0.822009 0 1.83335 0H9.5001C10.5114 0 11.3335 0.822009 11.3335 1.83335V5.45339C11.3335 5.72939 11.1094 5.9534 10.8334 5.9534C10.5574 5.9534 10.3334 5.72939 10.3334 5.45339V1.83335C10.3334 1.37401 9.95944 1.00001 9.5001 1.00001H1.83335C1.37401 1.00001 1.00001 1.37401 1.00001 1.83335V12.1668C1.00001 12.6261 1.37401 13.0001 1.83335 13.0001H7.06007C7.33608 13.0001 7.56008 13.2241 7.56008 13.5001C7.56008 13.7761 7.33608 14.0001 7.06007 14.0001Z" fill="#888888"/>
<path d="M8.8334 6.33302H2.50001C2.224 6.33302 2 6.10902 2 5.83301C2 5.55701 2.224 5.33301 2.50001 5.33301H8.8334C9.10941 5.33301 9.33341 5.55701 9.33341 5.83301C9.33341 6.10902 9.10941 6.33302 8.8334 6.33302Z" fill="#888888"/>
<path d="M6.16671 9.00001H2.50001C2.224 9.00001 2 8.77601 2 8.50001C2 8.224 2.224 8 2.50001 8H6.16671C6.44271 8 6.66672 8.224 6.66672 8.50001C6.66672 8.77601 6.44271 9.00001 6.16671 9.00001Z" fill="#888888"/>
<path d="M5.50004 3.667H2.50001C2.224 3.667 2 3.443 2 3.167C2 2.89099 2.224 2.66699 2.50001 2.66699H5.50004C5.77604 2.66699 6.00004 2.89099 6.00004 3.167C6.00004 3.443 5.77604 3.667 5.50004 3.667Z" fill="#888888"/>
</svg>
