<svg width="34" height="32" viewBox="0 0 34 32" fill="none" xmlns="http://www.w3.org/2000/svg">
<path d="M16.6011 32C8.61538 32 0 26.9911 0 16C0 5.00894 8.61538 0 16.6011 0C21.0376 0 25.1306 1.45975 28.1646 4.12165C31.4562 7.04114 33.2021 11.1628 33.2021 16C33.2021 20.8372 31.4562 24.9302 28.1646 27.8497C25.1306 30.5116 21.0089 32 16.6011 32Z" fill="url(#paint0_radial_42974_373988)"/>
<path d="M30.3084 6.48877C31.834 8.95031 32.6297 11.8813 32.6297 15.1414C32.6297 19.9786 30.8837 24.0716 27.5921 26.9911C24.5581 29.653 20.4365 31.1414 16.0286 31.1414C10.8594 31.1414 5.43828 29.0376 2.23828 24.5754C5.31807 29.6301 11.1113 32 16.6011 32C21.0089 32 25.1306 30.5117 28.1646 27.8498C31.4562 24.9303 33.2021 20.8372 33.2021 16C33.2021 12.3535 32.2089 9.11346 30.3084 6.48877Z" fill="#EB8F00"/>
<path d="M7.32457 14.0395L10.8108 13.364L7.21866 11.8728L7.09845 11.807C6.51169 11.4978 6.28843 10.7737 6.59755 10.1869C6.67197 10.0467 6.77215 9.92361 6.89237 9.82343C7.46482 9.3855 8.24907 9.35115 8.85873 9.73756L14.9496 13.4585C15.1042 13.49 15.2044 13.6417 15.1729 13.7962C15.1442 13.9308 15.024 14.0281 14.8866 14.0252L8.32922 16.4839C8.28342 16.5011 8.23763 16.5182 8.19183 16.5297C7.33315 16.7701 6.38002 16.2749 6.2455 15.4478C6.14532 14.8181 6.6319 14.2313 7.32457 14.0395Z" fill="#422B0D"/>
<path d="M25.5343 13.9682L22.0481 13.2927L25.6402 11.8015L25.7605 11.7357C26.3472 11.4266 26.5705 10.7024 26.2614 10.1156C26.1869 9.97539 26.0868 9.85232 25.9665 9.75214C25.3941 9.31421 24.6098 9.27987 24.0002 9.66627L17.9093 13.3872C17.7605 13.4416 17.686 13.6076 17.7404 13.7536C17.7776 13.8537 17.8664 13.9253 17.9723 13.9396L24.5297 16.4012C24.5755 16.4183 24.6213 16.4355 24.6671 16.4469C25.5258 16.6874 26.4789 16.1922 26.6134 15.365C26.7136 14.7468 26.227 14.16 25.5343 13.9682Z" fill="#422B0D"/>
<path d="M27.6123 18.4964C27.2116 17.7723 26.3414 17.4546 25.5686 17.7465C22.632 18.6023 19.5865 19.0288 16.5268 19.0145C13.467 19.0288 10.4216 18.6023 7.48491 17.7465C6.71496 17.4546 5.84484 17.7694 5.44412 18.4907C5.05486 19.2091 5.33536 20.042 5.66452 20.7605C7.50208 24.7962 11.5522 27.212 16.5039 27.2263H16.5497C21.5014 27.2263 25.5515 24.7962 27.3919 20.7605C27.7182 20.0363 28.0015 19.2148 27.6123 18.4964Z" fill="#422B0D"/>
<path d="M21.1094 26.0865C21.0035 25.9892 20.8947 25.9004 20.7859 25.8002C19.6181 24.7727 18.1069 24.2203 16.5498 24.2518C14.9469 24.226 13.387 24.7584 12.1362 25.7602C12.0274 25.8489 11.9129 25.9348 11.807 26.0464C11.7011 26.158 11.6439 26.2382 11.5752 26.3326C13.1494 26.948 14.8267 27.2629 16.5183 27.2543H16.5641C18.1841 27.2543 19.7899 26.9652 21.3069 26.3956C21.2496 26.2868 21.1838 26.1838 21.1094 26.0865Z" fill="#ED7770"/>
<path d="M25.5687 17.7462C22.632 18.6021 19.5866 19.0285 16.5268 19.0142C13.4671 19.0285 10.4216 18.6021 7.48495 17.7462C6.715 17.4543 5.84488 17.7691 5.44416 18.4904C5.38692 18.5992 5.34112 18.7137 5.3125 18.831C5.40695 18.8797 5.51572 18.9284 5.64452 18.9799C9.09067 20.7058 12.9003 21.5817 16.7529 21.5359C20.4481 21.5788 24.1003 20.7745 27.4377 19.1888C27.5722 19.1316 27.6839 19.0772 27.7841 19.0257C27.7612 18.8396 27.701 18.6564 27.6123 18.4904C27.2116 17.7691 26.3415 17.4514 25.5687 17.7462Z" fill="white"/>
<path d="M27.6237 18.4988C27.2173 17.7746 26.3443 17.4541 25.5658 17.746C22.6291 18.6018 19.5837 19.0283 16.5268 19.014C13.467 19.0283 10.4216 18.6018 7.48491 17.746C6.71496 17.4541 5.84484 17.7689 5.44412 18.4902C5.05486 19.2086 5.33536 20.0415 5.66452 20.76C5.81049 21.0834 5.97364 21.4011 6.15396 21.7074C6.15396 21.7074 5.55289 19.4805 6.07382 18.8337C6.25128 18.5589 6.54895 18.3872 6.87525 18.37C7.00978 18.37 7.14144 18.3929 7.27024 18.433C10.2584 19.3117 13.3583 19.7553 16.4752 19.7496H16.5754C19.6924 19.7553 22.7922 19.3117 25.7804 18.433C25.9092 18.3929 26.0409 18.37 26.1754 18.37C26.5017 18.3872 26.8023 18.5589 26.9797 18.8337C27.5092 19.4805 26.8996 21.716 26.8996 21.716C27.077 21.4097 27.2545 21.0949 27.4033 20.7686C27.7296 20.0501 28.013 19.2201 27.6237 18.4988Z" fill="#EB8F00"/>
<defs>
<radialGradient id="paint0_radial_42974_373988" cx="0" cy="0" r="1" gradientUnits="userSpaceOnUse" gradientTransform="translate(16.6011 16) scale(16.3033 16.3033)">
<stop offset="0.5" stop-color="#FDE030"/>
<stop offset="0.92" stop-color="#F7C02B"/>
<stop offset="1" stop-color="#F4A223"/>
</radialGradient>
</defs>
</svg>
