<svg width="32" height="32" viewBox="0 0 32 32" fill="none" xmlns="http://www.w3.org/2000/svg">
<path d="M8.65622 8.39798L4.88535 6.02705C4.56 5.83078 4.50667 5.38852 4.77601 5.12422L6.19209 3.73463C6.4641 3.46771 6.92279 3.52528 7.11747 3.85239L9.47493 7.6129C9.78428 8.13105 9.17891 8.71201 8.65622 8.39798Z" fill="#FFC107"/>
<path d="M5.35996 19.8024L0.981061 19.8888C0.599707 19.8966 0.327693 20.2525 0.423698 20.6136L0.933058 22.5135C1.03173 22.8799 1.45575 23.0552 1.79177 22.8721L5.66131 20.8858C6.19467 20.5901 5.97333 19.7893 5.35996 19.8024Z" fill="#FFC107"/>
<path d="M15.531 27.1011L14.571 31.2856C14.483 31.6494 14.763 32 15.1443 32H17.1471C17.5338 32 17.8138 31.6415 17.7178 31.2751L16.6751 27.0907C16.5204 26.5071 15.675 26.515 15.531 27.1011Z" fill="#FFC107"/>
<path d="M23.3452 8.39798L27.1161 6.02705C27.4414 5.83078 27.4948 5.38852 27.2254 5.12422L25.8093 3.73463C25.5373 3.46771 25.0786 3.52528 24.884 3.85239L22.5265 7.6129C22.2171 8.13105 22.8225 8.71201 23.3452 8.39798Z" fill="#FFC107"/>
<path d="M26.6416 19.8024L31.0205 19.8888C31.4018 19.8966 31.6739 20.2525 31.5779 20.6136L31.0685 22.5135C30.9698 22.8799 30.5458 23.0552 30.2098 22.8721L26.3402 20.8858C25.8069 20.5901 26.0282 19.7893 26.6416 19.8024Z" fill="#FFC107"/>
<path d="M17.0805 0.657174L20.67 8.69111C20.9447 9.30609 21.5394 9.72741 22.2221 9.7876L30.9666 10.557C31.9559 10.6983 32.3506 11.889 31.6333 12.5746L25.0462 18.0047C24.5129 18.4444 24.2702 19.1352 24.4169 19.8025L26.3316 28.598C26.4996 29.5636 25.4676 30.3016 24.5822 29.8437L16.9498 25.4577C16.3631 25.1201 15.6377 25.1201 15.051 25.4577L7.41863 29.841C6.53592 30.2964 5.5012 29.561 5.6692 28.5954L7.58397 19.7999C7.72798 19.1326 7.48797 18.4417 6.95461 18.0021L0.364922 12.5772C-0.349783 11.8942 0.0449049 10.7009 1.03162 10.5596L9.77609 9.79022C10.4588 9.73003 11.0535 9.3087 11.3282 8.69373L14.9177 0.659791C15.3631 -0.219494 16.6378 -0.219494 17.0805 0.657174Z" fill="#FDD835"/>
<path d="M16.8189 9.17285L16.2108 3.25338C16.1868 2.92365 16.1175 2.3584 16.6562 2.3584C17.0829 2.3584 17.3149 3.22983 17.3149 3.22983L19.139 7.98216C19.827 9.79045 19.5443 10.4107 18.8803 10.777C18.1176 11.1957 16.9922 10.8686 16.8189 9.17285Z" fill="#FFFF8D"/>
<path d="M24.3425 17.4787L29.5747 13.4722C29.8334 13.2602 30.3001 12.9226 29.9267 12.538C29.6307 12.2344 28.8307 12.6714 28.8307 12.6714L24.2518 14.4274C22.8864 14.8906 21.9797 15.5762 21.8997 16.4398C21.7956 17.5912 22.849 18.4784 24.3425 17.4787Z" fill="#F4B400"/>
</svg>
