<svg width="29" height="32" viewBox="0 0 29 32" fill="none" xmlns="http://www.w3.org/2000/svg">
<path d="M6.27588 0C5.17588 0 4.27588 0.9 4.27588 2V30C4.27588 31.1 5.17588 32 6.27588 32H26.2759C27.3759 32 28.2759 31.1 28.2759 30V8L20.2759 0H6.27588Z" fill="#E2E5E7"/>
<path d="M22.2759 8H28.2759L20.2759 0V6C20.2759 7.1 21.1759 8 22.2759 8Z" fill="#B0B7BD"/>
<path d="M28.2759 14L22.2759 8H28.2759V14Z" fill="#CAD1D8"/>
<path d="M24.2759 26C24.2759 26.55 23.8259 27 23.2759 27H1.27588C0.725879 27 0.275879 26.55 0.275879 26V16C0.275879 15.45 0.725879 15 1.27588 15H23.2759C23.8259 15 24.2759 15.45 24.2759 16V26Z" fill="#14A2D9"/>
<path d="M23.2759 27H4.27588V28H23.2759C23.8259 28 24.2759 27.55 24.2759 27V26C24.2759 26.55 23.8259 27 23.2759 27Z" fill="#CAD1D8"/>
<path d="M5.06178 18.504C5.06178 17.832 6.11778 17.832 6.11778 18.504V21.662C6.11778 22.918 5.51778 23.678 4.13478 23.678C3.45478 23.678 2.88778 23.493 2.39178 22.854C1.98378 22.366 2.75178 21.663 3.16778 22.174C3.50378 22.59 3.86378 22.686 4.21478 22.67C4.66178 22.654 5.05478 22.453 5.06278 21.662V18.504H5.06178Z" fill="white"/>
<path d="M7.11768 18.552C7.11768 18.288 7.32568 18 7.66168 18H9.50868C10.5487 18 11.4847 18.696 11.4847 20.03C11.4847 21.294 10.5487 21.998 9.50868 21.998H8.17368V23.054C8.17368 23.406 7.94968 23.605 7.66168 23.605C7.39768 23.605 7.11768 23.406 7.11768 23.054V18.552ZM8.17368 19.007V20.999H9.50868C10.0447 20.999 10.4687 20.526 10.4687 20.03C10.4687 19.471 10.0447 19.007 9.50868 19.007H8.17368Z" fill="white"/>
<path d="M15.6849 19.1869C15.8546 19.1869 16.0174 19.1244 16.1374 19.0131C16.2574 18.9018 16.3249 18.7508 16.3249 18.5935C16.3249 18.4361 16.2574 18.2851 16.1374 18.1738C16.0174 18.0625 15.8546 18 15.6849 18H13.1249C12.9551 18 12.7923 18.0625 12.6723 18.1738C12.5523 18.2851 12.4849 18.4361 12.4849 18.5935V23.3411C12.4849 23.4985 12.5523 23.6494 12.6723 23.7607C12.7923 23.872 12.9551 23.9345 13.1249 23.9345H15.6849C15.8546 23.9345 16.0174 23.872 16.1374 23.7607C16.2574 23.6494 16.3249 23.4985 16.3249 23.3411C16.3249 23.1837 16.2574 23.0327 16.1374 22.9215C16.0174 22.8102 15.8546 22.7476 15.6849 22.7476H13.7649V21.5607H14.4049C14.5746 21.5607 14.7374 21.4982 14.8574 21.3869C14.9774 21.2756 15.0449 21.1247 15.0449 20.9673C15.0449 20.8099 14.9774 20.6589 14.8574 20.5476C14.7374 20.4363 14.5746 20.3738 14.4049 20.3738H13.7649V19.1869H15.6849Z" fill="white"/>
<path d="M22.1627 23.06C21.5947 23.532 20.8987 23.732 20.1957 23.732C18.5157 23.732 17.3247 22.773 17.3247 20.869C17.3247 19.255 18.5807 18 20.2667 18C20.8987 18 21.5937 18.215 22.0897 18.703C22.5767 19.182 21.8737 19.894 21.3947 19.471C21.0987 19.183 20.6827 18.967 20.2667 18.967C19.2997 18.967 18.3647 19.742 18.3647 20.869C18.3647 22.053 19.1477 22.773 20.1957 22.773C20.6827 22.773 21.0987 22.628 21.3947 22.413V21.43H20.1957C19.4837 21.43 19.5557 20.454 20.1957 20.454H21.7947C22.0907 20.454 22.3617 20.678 22.3617 20.926V22.629C22.3617 22.773 22.2987 22.907 22.1627 23.06Z" fill="white"/>
</svg>
