<svg width="32" height="32" viewBox="0 0 32 32" fill="none" xmlns="http://www.w3.org/2000/svg">
<path d="M8 0C6.9 0 6 0.9 6 2V30C6 31.1 6.9 32 8 32H28C29.1 32 30 31.1 30 30V8L22 0H8Z" fill="#E2E5E7"/>
<path d="M24 8H30L22 0V6C22 7.1 22.9 8 24 8Z" fill="#B0B7BD"/>
<path d="M30 14L24 8H30V14Z" fill="#CAD1D8"/>
<path d="M26 26C26 26.55 25.55 27 25 27H3C2.45 27 2 26.55 2 26V16C2 15.45 2.45 15 3 15H25C25.55 15 26 15.45 26 16V26Z" fill="#50BEE8"/>
<path d="M8.87306 18.947C8.87306 18.275 9.92906 18.275 9.92906 18.947V22.105C9.92906 23.361 9.32906 24.121 7.94606 24.121C7.26606 24.121 6.69906 23.936 6.20306 23.297C5.79506 22.809 6.56306 22.106 6.97906 22.617C7.31506 23.033 7.67506 23.129 8.02606 23.113C8.47306 23.097 8.86606 22.896 8.87406 22.105V18.947H8.87306Z" fill="white"/>
<path d="M11.334 18.947C11.334 18.683 11.542 18.395 11.878 18.395H13.725C14.765 18.395 15.701 19.091 15.701 20.425C15.701 21.689 14.765 22.393 13.725 22.393H12.39V23.449C12.39 23.801 12.166 24 11.878 24C11.614 24 11.334 23.801 11.334 23.449V18.947ZM12.39 19.402V21.394H13.725C14.261 21.394 14.685 20.921 14.685 20.425C14.685 19.866 14.261 19.402 13.725 19.402H12.39Z" fill="white"/>
<path d="M21.411 23.385C20.843 23.857 20.147 24.057 19.444 24.057C17.764 24.057 16.573 23.098 16.573 21.194C16.573 19.58 17.829 18.325 19.515 18.325C20.147 18.325 20.842 18.54 21.338 19.028C21.825 19.507 21.122 20.219 20.643 19.796C20.347 19.508 19.931 19.292 19.515 19.292C18.548 19.292 17.613 20.067 17.613 21.194C17.613 22.378 18.396 23.098 19.444 23.098C19.931 23.098 20.347 22.953 20.643 22.738V21.755H19.444C18.732 21.755 18.804 20.779 19.444 20.779H21.043C21.339 20.779 21.61 21.003 21.61 21.251V22.954C21.61 23.098 21.547 23.232 21.411 23.385Z" fill="white"/>
<path d="M25 27H6V28H25C25.55 28 26 27.55 26 27V26C26 26.55 25.55 27 25 27Z" fill="#CAD1D8"/>
</svg>
