<svg width="31" height="32" viewBox="0 0 31 32" fill="none" xmlns="http://www.w3.org/2000/svg">
<path d="M9.61661 31.4583C11.9299 31.4396 15.4012 31.3484 18.8161 31.0268C21.167 30.8043 23.5955 30.4531 25.4397 29.4077C25.9597 29.1129 26.528 29.0405 27.0319 28.9788C27.2464 28.952 27.4474 28.9279 27.619 28.8877C28.927 28.5794 29.8411 27.4483 29.8465 26.1375L29.8652 17.3588C29.8679 16.1445 29.0021 15.1286 27.8039 14.941C27.7825 14.9383 27.7637 14.9329 27.7423 14.9276C27.5948 14.8793 24.0726 13.7321 21.4189 11.6573C20.1698 10.6816 19.1003 9.17787 18.5561 7.63657C18.0147 6.10063 18.0173 4.42531 18.02 3.07969C18.02 2.2112 18.0227 1.13096 17.7868 0.972805C17.2132 0.594853 16.5806 0.401855 15.9078 0.401855C13.8384 0.401855 11.7262 2.29162 11.6431 4.21623C11.5841 5.55113 12.0318 7.12727 12.4633 8.6498C12.9726 10.4538 13.4149 12.0112 13.0155 13.07C12.9565 13.2281 12.8064 13.33 12.6402 13.33C12.6349 13.33 10.6861 13.263 10.6861 13.263H10.6674C8.48007 13.263 6.70021 15.0428 6.69753 17.2275L6.68413 28.5419C6.68413 29.3219 6.98435 30.0537 7.53653 30.6032C8.08604 31.1527 8.81782 31.4583 9.59785 31.4583H9.61661Z" fill="url(#paint0_radial_42974_373949)"/>
<path d="M15.908 0.804155C14.0692 0.804155 12.1205 2.53577 12.0454 4.23253C11.9891 5.5031 12.4261 7.04708 12.8496 8.54012C13.3803 10.4111 13.836 12.0275 13.391 13.2096C13.2731 13.5232 12.9729 13.7296 12.6378 13.7296H12.6083L10.6784 13.6626H10.6623C8.69746 13.6626 7.09719 15.2602 7.09451 17.2277L7.08111 28.5421C7.08111 29.2123 7.34112 29.8449 7.81557 30.3193C8.29002 30.7938 8.91994 31.0565 9.59275 31.0565H9.6142C11.9194 31.0377 15.38 30.9466 18.7789 30.6276C21.0841 30.4105 23.4644 30.0673 25.2416 29.0595C25.8313 28.7244 26.4693 28.6467 26.9813 28.5823C27.185 28.5582 27.3753 28.5341 27.5254 28.4966C28.6512 28.2312 29.4393 27.2608 29.442 26.1377L29.4634 17.359C29.4661 16.3458 28.7424 15.4961 27.7425 15.3406C27.7023 15.3352 27.6594 15.3245 27.6219 15.3111C27.4718 15.2629 23.8853 14.0915 21.1753 11.9739C19.8699 10.9526 18.7494 9.38181 18.1811 7.77082C17.6155 6.17055 17.6182 4.4577 17.6209 3.07991C17.6209 2.42587 17.6236 1.5413 17.511 1.27325C17.0178 0.959625 16.479 0.804155 15.908 0.804155ZM15.908 0C16.6184 0 17.3368 0.192997 18.0096 0.637963C18.8781 1.21159 17.9372 4.6641 18.937 7.50008C19.5375 9.20221 20.682 10.5693 21.6685 11.3386C24.2954 13.3919 27.8658 14.5445 27.8658 14.5445C29.2517 14.7616 30.2703 15.9571 30.2676 17.3617L30.2461 26.1404C30.2408 27.6522 29.182 28.9308 27.7104 29.2793C27.1153 29.4187 26.3031 29.3811 25.6383 29.7591C23.8611 30.767 21.5827 31.169 18.8539 31.4264C15.4765 31.7454 12.0454 31.8392 9.61956 31.8606H9.59275C7.76196 31.8606 6.27427 30.3756 6.27695 28.5421L6.29036 17.2277C6.29304 14.8125 8.25249 12.8611 10.6623 12.8611H10.6944L12.6351 12.9281C13.3053 11.1483 11.1099 7.14357 11.2386 4.19769C11.3324 2.1042 13.5653 0 15.908 0Z" fill="#EDA600"/>
<path d="M14.8175 15.5978C14.3136 16.938 14.3082 19.0288 14.8175 20.3208C15.5547 22.1865 17.3587 23.8189 19.4414 24.1057C19.9507 24.1754 19.6478 24.6445 19.1412 24.5748C16.8869 24.2639 13.8365 23.3498 13.043 21.326C10.8665 15.7639 13.413 12.8502 14.5495 13.7187C15.0963 14.1422 15.1017 14.8392 14.8175 15.5978Z" fill="#EDA600"/>
<path d="M9.4129 17.5868C11.6538 17.5868 14.3477 17.1713 14.463 15.1851C14.4952 14.6168 14.3236 14.1397 13.9376 13.7295C12.9217 12.652 10.4261 12.0596 6.9093 12.0596C5.63337 12.0596 4.70323 12.1427 4.69251 12.1427C4.68179 12.1427 4.66839 12.1453 4.65767 12.1453H4.63354C4.59601 12.1427 4.56117 12.1427 4.52364 12.1427C3.38442 12.1427 2.43284 13.1693 2.3551 14.4801C2.27469 15.8364 3.1673 16.9944 4.34404 17.0614C4.36281 17.0614 4.38425 17.0641 4.40302 17.0695C4.42714 17.0721 6.9093 17.5868 9.4129 17.5868Z" fill="url(#paint1_radial_42974_373949)"/>
<path d="M6.90703 12.4619C5.65255 12.4619 4.73581 12.5423 4.72777 12.5423C4.70364 12.545 4.67952 12.545 4.6554 12.545C4.63931 12.545 4.62323 12.545 4.60983 12.5423C4.58034 12.5396 4.55086 12.5396 4.52405 12.5396C3.59927 12.5396 2.82192 13.4001 2.75759 14.4964C2.72542 15.0647 2.88626 15.6034 3.2106 16.0162C3.5135 16.4022 3.9263 16.6274 4.36858 16.6542C4.40879 16.6569 4.44899 16.6622 4.48652 16.6703C4.51065 16.6756 6.95796 17.1823 9.41331 17.1823C10.8393 17.1823 11.9705 17.0161 12.772 16.689C13.8737 16.2387 14.0372 15.6008 14.0613 15.1611C14.0881 14.7028 13.9541 14.3356 13.6432 14.0032C12.7184 13.0248 10.263 12.4619 6.90703 12.4619ZM6.90703 11.6577C9.96818 11.6577 15.0451 12.1214 14.8655 15.2094C14.7341 17.4396 12.0429 17.9891 9.41331 17.9891C6.83734 17.9891 4.32033 17.461 4.32033 17.461C2.9211 17.3779 1.85962 16.0323 1.95344 14.4535C2.04189 12.9256 3.17843 11.7381 4.52137 11.7381C4.56694 11.7381 4.60983 11.7381 4.6554 11.7408C4.6554 11.7408 5.59626 11.6577 6.90703 11.6577Z" fill="#EDA600"/>
<path d="M7.73249 22.6881C10.6569 22.6881 14.1416 22.1976 14.1416 19.8548C14.1416 17.512 10.6569 17.0215 7.73249 17.0215C5.25301 17.0215 2.99334 17.3834 2.97189 17.386C2.95045 17.3887 2.929 17.3914 2.90756 17.3914C1.72545 17.3914 0.902534 18.6405 0.902534 19.761C0.902534 20.9431 1.77906 22.3155 2.90756 22.3155C2.929 22.3155 2.95045 22.3182 2.97189 22.3209C2.99602 22.3262 5.25569 22.6881 7.73249 22.6881Z" fill="url(#paint2_radial_42974_373949)"/>
<path d="M7.73275 17.4262C5.28812 17.4262 3.05793 17.7827 3.03649 17.7854C2.9936 17.7935 2.95071 17.7961 2.90782 17.7961C1.99109 17.7961 1.30488 18.8362 1.30488 19.7636C1.30488 20.7313 2.0447 21.9161 2.90782 21.9161C2.95071 21.9161 2.9936 21.9188 3.03649 21.9268C3.05793 21.9295 5.2908 22.286 7.73275 22.286C9.56355 22.286 11.0191 22.093 12.0618 21.7097C13.5656 21.1575 13.7398 20.3855 13.7398 19.8548C13.7398 19.3213 13.5656 18.552 12.0618 17.9999C11.0217 17.6192 9.56355 17.4262 7.73275 17.4262ZM7.73275 16.6221C10.9306 16.6221 14.5439 17.2091 14.5439 19.8575C14.5439 22.5058 10.9333 23.0928 7.73275 23.0928C5.18894 23.0928 2.90782 22.7229 2.90782 22.7229C1.52468 22.7229 0.500723 21.1387 0.500723 19.7663C0.500723 18.3939 1.52468 16.9947 2.90782 16.9947C2.90782 16.992 5.19162 16.6221 7.73275 16.6221Z" fill="#EDA600"/>
<path d="M5.50498 31.5977C6.63347 31.5977 12.351 31.5093 14.0826 29.775C14.3855 29.4721 14.5303 29.1451 14.5303 28.7751C14.5249 27.3679 12.1151 26.561 7.92012 26.561C6.4244 26.561 5.26641 26.6683 5.25301 26.6683C5.24229 26.6683 5.22888 26.6709 5.21816 26.6709C4.59092 26.6736 3.99853 26.9283 3.55624 27.392C3.1086 27.8584 2.86467 28.4803 2.86467 29.1397C2.87003 30.4934 3.92883 31.5924 5.2262 31.5924C5.24497 31.5977 5.33879 31.5977 5.50498 31.5977Z" fill="url(#paint3_radial_42974_373949)"/>
<path d="M7.91745 26.9658C6.44584 26.9658 5.30126 27.0703 5.29054 27.073C5.26641 27.0757 5.24229 27.0757 5.21817 27.0757C4.70083 27.0784 4.21297 27.2901 3.84574 27.6734C3.47047 28.0648 3.26407 28.5875 3.26675 29.1424C3.26943 30.2735 4.14864 31.1956 5.23425 31.1956H5.23693H5.25301C5.25837 31.1956 5.34951 31.1983 5.50766 31.1983C10.3728 31.1983 13.0158 30.2789 13.8012 29.4935C14.0987 29.196 14.1309 28.944 14.1309 28.7805C14.1228 27.66 11.7452 26.9658 7.91745 26.9658ZM7.91745 26.1616C10.791 26.1616 14.9243 26.5476 14.9297 28.7751C14.9404 31.847 7.07576 31.9998 5.50498 31.9998C5.33075 31.9998 5.23425 31.9971 5.23425 31.9971H5.22621C3.70367 31.9971 2.46796 30.7212 2.4626 29.1424C2.45724 27.5608 3.69027 26.2742 5.21548 26.2688C5.21548 26.2715 6.38687 26.1616 7.91745 26.1616Z" fill="#EDA600"/>
<path d="M6.50747 27.3439C8.91725 27.3439 14.5195 27.0705 14.5195 24.5374C14.5195 22.4091 10.48 22.0928 8.07021 22.0928C5.9392 22.0928 4.10305 22.3287 4.08428 22.3313C4.0682 22.334 4.04944 22.334 4.03336 22.334C2.91558 22.334 1.61285 22.8862 1.61285 24.4436C1.61285 25.9179 2.76547 27.2581 4.03336 27.2581H4.06552C4.07624 27.2608 5.10824 27.3439 6.50747 27.3439Z" fill="url(#paint4_radial_42974_373949)"/>
<path d="M8.0695 21.6934V22.4975C5.97066 22.4975 4.15327 22.7307 4.13719 22.7334C4.10234 22.7388 4.06749 22.7388 4.03265 22.7388C3.05694 22.7388 2.01422 23.1864 2.01422 24.4463C2.01422 25.6873 2.99529 26.8587 4.03265 26.8587C4.05409 26.8587 4.07553 26.8587 4.09966 26.8614C4.11038 26.8614 5.1263 26.9445 6.50944 26.9445C7.97032 26.9445 10.0584 26.8507 11.7123 26.4111C13.3072 25.9849 14.1167 25.3549 14.1167 24.5427C14.1167 24.2935 14.1167 23.5349 12.4173 23.0015C11.3585 22.6691 9.89761 22.5002 8.07218 22.5002L8.0695 21.6934ZM8.0695 21.6934C11.1682 21.6934 14.9209 22.1812 14.9209 24.5401C14.9209 27.3198 9.7207 27.7486 6.50676 27.7486C5.07 27.7486 4.03265 27.6629 4.03265 27.6629C2.52083 27.6629 1.21006 26.1001 1.21006 24.4463C1.21006 22.7924 2.52083 21.9346 4.03265 21.9346C4.03265 21.9346 5.89024 21.6934 8.0695 21.6934Z" fill="#EDA600"/>
<path d="M25.0911 29.6438L26.375 24.5776L26.9111 29.1345L25.0911 29.6438Z" fill="#EDA600"/>
<defs>
<radialGradient id="paint0_radial_42974_373949" cx="0" cy="0" r="1" gradientUnits="userSpaceOnUse" gradientTransform="translate(18.6636 7.26159) rotate(89.875) scale(23.331 18.3685)">
<stop offset="0.6" stop-color="#FFCA28"/>
<stop offset="1" stop-color="#FFB300"/>
</radialGradient>
<radialGradient id="paint1_radial_42974_373949" cx="0" cy="0" r="1" gradientUnits="userSpaceOnUse" gradientTransform="translate(4.94386 14.5892) rotate(3.27331) scale(7.57826 3.70816)">
<stop offset="0.5993" stop-color="#FFCA28"/>
<stop offset="1" stop-color="#FFB300"/>
</radialGradient>
<radialGradient id="paint2_radial_42974_373949" cx="0" cy="0" r="1" gradientUnits="userSpaceOnUse" gradientTransform="translate(3.74728 19.7842) rotate(-0.0636545) scale(8.52893 3.42023)">
<stop offset="0.5993" stop-color="#FFCA28"/>
<stop offset="1" stop-color="#FFB300"/>
</radialGradient>
<radialGradient id="paint3_radial_42974_373949" cx="0" cy="0" r="1" gradientUnits="userSpaceOnUse" gradientTransform="translate(5.4103 29.0261) rotate(-0.274421) scale(7.16265 3.72906)">
<stop offset="0.5993" stop-color="#FFCA28"/>
<stop offset="1" stop-color="#FFB300"/>
</radialGradient>
<radialGradient id="paint4_radial_42974_373949" cx="0" cy="0" r="1" gradientUnits="userSpaceOnUse" gradientTransform="translate(4.39085 24.6545) rotate(-0.0660243) scale(8.16053 3.39433)">
<stop offset="0.5993" stop-color="#FFCA28"/>
<stop offset="1" stop-color="#FFB300"/>
</radialGradient>
</defs>
</svg>
