<svg width="714" height="651" viewBox="0 0 714 651" fill="none" xmlns="http://www.w3.org/2000/svg">
<path d="M0.298706 80.3022C0.298706 48.1388 26.3723 22.0652 58.5357 22.0652H611.736H633.952C666.115 22.0652 692.189 48.1388 692.189 80.3022V108.882V382.017C692.189 414.18 666.115 440.254 633.952 440.254H58.5357C26.3723 440.254 0.298706 414.18 0.298706 382.017V80.3022Z" fill="white"/>
<path d="M118.256 437.54L343.945 437.54C262.01 499.58 212.184 529.361 118.256 575.982C132.448 523.009 136.139 492.981 118.256 437.54Z" fill="white"/>
<path d="M104.088 194.343C110.145 192.829 118.094 191.22 127.936 189.517C137.967 187.814 149.513 186.962 162.572 186.962C172.036 186.962 179.985 188.287 186.421 190.937C192.856 193.397 198.25 197.088 202.603 202.009C203.928 201.063 206.01 199.738 208.849 198.034C211.688 196.331 215.19 194.722 219.354 193.208C223.517 191.504 228.155 190.085 233.265 188.949C238.375 187.624 243.864 186.962 249.731 186.962C261.088 186.962 270.362 188.665 277.554 192.072C284.746 195.29 290.33 199.927 294.305 205.984C298.468 212.04 301.213 219.232 302.538 227.56C304.052 235.888 304.809 244.973 304.809 254.815V337.716H278.406V260.493C278.406 251.787 277.933 244.311 276.986 238.065C276.229 231.819 274.62 226.614 272.16 222.45C269.889 218.286 266.671 215.258 262.507 213.365C258.532 211.283 253.328 210.242 246.892 210.242C237.997 210.242 230.615 211.472 224.748 213.933C219.07 216.204 215.19 218.286 213.108 220.179C214.622 225.1 215.757 230.494 216.514 236.361C217.272 242.229 217.65 248.38 217.65 254.815V337.716H191.247V260.493C191.247 251.787 190.774 244.311 189.827 238.065C188.881 231.819 187.178 226.614 184.717 222.45C182.446 218.286 179.228 215.258 175.064 213.365C171.09 211.283 165.979 210.242 159.733 210.242C157.084 210.242 154.245 210.337 151.216 210.526C148.188 210.715 145.254 210.999 142.415 211.378C139.765 211.567 137.305 211.851 135.034 212.229C132.762 212.608 131.248 212.892 130.491 213.081V337.716H104.088V194.343ZM466.16 333.457C460.104 334.971 452.06 336.58 442.028 338.283C432.186 339.987 420.736 340.839 407.676 340.839C396.32 340.839 386.762 339.23 379.001 336.012C371.241 332.605 364.995 327.874 360.264 321.817C355.532 315.76 352.125 308.663 350.043 300.524C347.961 292.196 346.92 283.016 346.92 272.985V190.085H373.323V267.307C373.323 285.288 376.162 298.158 381.84 305.918C387.519 313.678 397.077 317.558 410.515 317.558C413.354 317.558 416.288 317.464 419.316 317.274C422.344 317.085 425.183 316.896 427.833 316.707C430.483 316.328 432.849 316.044 434.931 315.855C437.202 315.476 438.811 315.098 439.757 314.719V190.085H466.16V333.457ZM546 318.694C556.788 318.694 564.738 317.274 569.848 314.435C575.147 311.596 577.797 307.054 577.797 300.808C577.797 294.373 575.242 289.262 570.132 285.477C565.021 281.692 556.599 277.433 544.864 272.701C539.186 270.43 533.697 268.159 528.398 265.888C523.287 263.427 518.84 260.588 515.054 257.37C511.269 254.153 508.24 250.273 505.969 245.73C503.698 241.188 502.562 235.604 502.562 228.98C502.562 215.92 507.389 205.605 517.041 198.034C526.694 190.274 539.849 186.394 556.504 186.394C560.668 186.394 564.832 186.678 568.996 187.246C573.16 187.624 577.04 188.192 580.636 188.949C584.232 189.517 587.355 190.179 590.005 190.937C592.844 191.694 595.021 192.356 596.535 192.924L591.709 215.636C588.869 214.122 584.422 212.608 578.365 211.094C572.308 209.39 565.021 208.539 556.504 208.539C549.123 208.539 542.688 210.053 537.199 213.081C531.71 215.92 528.965 220.463 528.965 226.709C528.965 229.926 529.533 232.765 530.669 235.226C531.994 237.686 533.887 239.958 536.347 242.04C538.997 243.932 542.214 245.73 546 247.434C549.785 249.137 554.328 250.935 559.627 252.828C566.63 255.478 572.876 258.127 578.365 260.777C583.854 263.238 588.491 266.171 592.276 269.578C596.251 272.985 599.279 277.149 601.361 282.07C603.443 286.802 604.484 292.669 604.484 299.672C604.484 313.3 599.374 323.615 589.153 330.618C579.122 337.621 564.738 341.122 546 341.122C532.94 341.122 522.72 339.987 515.338 337.716C507.956 335.634 502.941 334.025 500.291 332.889L505.117 310.177C508.146 311.312 512.972 313.016 519.597 315.287C526.221 317.558 535.022 318.694 546 318.694Z" fill="#006EDC"/>
<ellipse cx="648.573" cy="70.6239" rx="65.1281" ry="69.984" fill="#006EDC"/>
<ellipse cx="649.575" cy="69.5471" rx="46.0906" ry="49.5271" fill="white"/>
</svg>
