<svg width="32" height="32" viewBox="0 0 32 32" fill="none" xmlns="http://www.w3.org/2000/svg">
<path d="M23.9866 0C18.144 0 15.9973 6.50813 15.9973 6.50813C15.9973 6.50813 13.88 0 7.99733 0C3.57601 0 -1.46398 3.81942 0.397345 12.5018C2.25868 21.1841 16.0133 32 16.0133 32C16.0133 32 29.7173 21.1841 31.5813 12.5018C33.4426 3.81942 28.7653 0 23.9866 0Z" fill="#F44336"/>
<path d="M7.09583 0.648197C11.6825 0.648197 13.9598 6.02271 14.6958 8.19984C14.7998 8.51086 15.1971 8.51958 15.3171 8.21728L15.9891 6.50522C15.0425 3.20901 12.4398 0 7.99716 0C6.15717 0 4.21317 0.66273 2.70117 2.06086C4.03717 1.10455 5.6025 0.648197 7.09583 0.648197Z" fill="#CC3333"/>
<path d="M23.987 0C22.5763 0 21.291 0.334272 20.2883 1.00863C20.9923 0.712144 21.8643 0.648197 22.7283 0.648197C27.051 0.648197 30.9203 4.22055 29.1736 12.4785C27.675 19.568 18.9177 28.169 16.243 31.4506C16.0723 31.6599 16.0137 31.9971 16.0137 31.9971C16.0137 31.9971 29.7176 21.1812 31.5816 12.4989C33.443 3.81942 28.7736 0 23.987 0Z" fill="#CC3333"/>
<path d="M3.46636 4.60727C4.46635 3.24693 6.25302 2.12203 7.76768 3.41842C8.58635 4.11894 8.22901 5.55486 7.49568 6.15945C6.42902 7.04309 5.50102 7.57502 4.85035 8.95862C4.46102 9.78994 4.22635 10.6997 4.10636 11.627C4.05836 11.9932 3.61836 12.0833 3.45302 11.7607C2.32769 9.58647 2.00769 6.59255 3.46636 4.60727Z" fill="#FF8A80"/>
<path d="M19.4981 7.46754C19.0288 7.46754 18.6981 6.9734 18.8688 6.4967C19.1861 5.61887 19.5968 4.77011 20.0901 4.01436C20.8208 2.89819 22.2101 2.24708 23.0901 2.92435C23.9915 3.61615 23.8741 4.99974 23.2421 5.66828C21.8848 7.10129 20.1728 7.46754 19.4981 7.46754Z" fill="#FF8A80"/>
</svg>
