<svg width="25" height="32" viewBox="0 0 25 32" fill="none" xmlns="http://www.w3.org/2000/svg">
<path d="M2.02299 0C0.910345 0 0 0.9 0 2V30C0 31.1 0.910345 32 2.02299 32H22.2529C23.3655 32 24.2759 31.1 24.2759 30V8L16.1839 0H2.02299Z" fill="#E2E5E7"/>
<path d="M18.2069 8H24.2759L16.1839 0V6C16.1839 7.1 17.0943 8 18.2069 8Z" fill="#B0B7BD"/>
<path d="M24.2759 14L18.2069 8H24.2759V14Z" fill="#CAD1D8"/>
<path d="M19.0161 17.8C19.0161 21.666 15.8461 24.8 11.9356 24.8C8.0252 24.8 4.85517 21.666 4.85517 17.8C4.85517 13.934 8.0252 10.8 11.9356 10.8C15.8461 10.8 19.0161 13.934 19.0161 17.8Z" fill="#C0CCD7"/>
<path d="M10.7217 21.2C10.5675 21.2 10.4127 21.1704 10.2695 21.1103C9.9268 20.9663 9.71034 20.672 9.71034 20.35V15.25C9.71034 14.9281 9.9268 14.6338 10.2695 14.4897C10.6121 14.3458 11.0222 14.3768 11.3287 14.57L15.3747 17.12C15.6294 17.2806 15.7793 17.5325 15.7793 17.8C15.7793 18.0675 15.6294 18.3195 15.3747 18.48L11.3287 21.03C11.1503 21.1425 10.9367 21.2 10.7217 21.2Z" fill="#F9F9F9"/>
</svg>
