<svg width="22" height="22" viewBox="0 0 22 22" fill="none" xmlns="http://www.w3.org/2000/svg">
<circle cx="11" cy="11" r="10.5" fill="#FFB320" stroke="white"/>
<g clip-path="url(#clip0_40683_5768)">
<path d="M11 14.0435C10.1822 14.0435 9.51685 14.7088 9.51685 15.5266C9.5914 17.4914 12.4088 17.4909 12.4831 15.5266C12.4831 14.7088 11.8177 14.0435 11 14.0435Z" fill="white"/>
<path d="M12.4824 5.68488C11.7464 4.77192 10.254 4.77147 9.51768 5.68493C9.14899 6.12386 8.9942 6.69932 9.09302 7.26375C9.3877 8.94739 9.80356 11.3236 9.99019 12.3908C10.1993 13.5142 11.8008 13.5138 12.0097 12.3909L12.9071 7.26375C13.0059 6.69934 12.8511 6.12386 12.4824 5.68488Z" fill="white"/>
</g>
<defs>
<clipPath id="clip0_40683_5768">
<rect width="12" height="12" fill="white" transform="translate(5 5)"/>
</clipPath>
</defs>
</svg>
