<svg width="36" height="36" viewBox="0 0 36 36" fill="none" xmlns="http://www.w3.org/2000/svg">
<rect width="36" height="36" rx="18" fill="#F4F4F4"/>
<path d="M24.9069 16.3762C25.6925 16.3762 26.3294 15.7394 26.3294 14.9537C26.3294 14.1681 25.6925 13.5312 24.9069 13.5312C24.1213 13.5312 23.4844 14.1681 23.4844 14.9537C23.4844 15.7394 24.1213 16.3762 24.9069 16.3762Z" fill="#333333"/>
<path d="M23.4844 17.5949H26.3285V20.6416C26.3285 21.4266 25.691 22.0632 24.906 22.0632H23.4844V17.5949ZM9.67188 11.5007V24.5007L19.016 26.1499V9.85156L9.67188 11.5007ZM16.5785 16.0099L14.9535 16.0507V20.8441H13.7344V16.1316L12.1102 16.2132V15.1166L16.5785 14.8732V16.0099ZM19.8277 16.3757V23.2824H21.4527C22.126 23.2824 22.6719 22.7366 22.6719 22.0641V16.3757H19.8277ZM21.0469 12.3132C20.5585 12.3132 20.126 12.5332 19.8277 12.8741V15.0032C20.1252 15.3441 20.5585 15.5641 21.0469 15.5641C21.9444 15.5641 22.6719 14.8357 22.6719 13.9391C22.6719 13.0424 21.9444 12.3132 21.0469 12.3132Z" fill="#333333"/>
</svg>
