<svg width="36" height="36" viewBox="0 0 36 36" fill="none" xmlns="http://www.w3.org/2000/svg">
<rect width="36" height="36" rx="18" fill="#F4F4F4"/>
<path d="M26.3351 22.1014V24.6014C26.3361 24.8335 26.2886 25.0632 26.1956 25.2758C26.1026 25.4885 25.9662 25.6794 25.7952 25.8363C25.6242 25.9932 25.4223 26.1126 25.2024 26.187C24.9826 26.2613 24.7496 26.2889 24.5185 26.268C21.9542 25.9894 19.491 25.1132 17.3268 23.7097C15.3133 22.4303 13.6063 20.7232 12.3268 18.7097C10.9185 16.5357 10.042 14.0605 9.76848 11.4847C9.74766 11.2543 9.77505 11.022 9.8489 10.8027C9.92275 10.5835 10.0415 10.382 10.1975 10.2111C10.3535 10.0402 10.5433 9.90364 10.755 9.81015C10.9666 9.71666 11.1954 9.66827 11.4268 9.66805H13.9268C14.3312 9.66407 14.7233 9.80728 15.03 10.071C15.3366 10.3347 15.5369 10.7009 15.5935 11.1014C15.699 11.9014 15.8947 12.687 16.1768 13.443C16.2889 13.7413 16.3132 14.0655 16.2467 14.3771C16.1803 14.6888 16.0259 14.9748 15.8018 15.2014L14.7435 16.2597C15.9298 18.346 17.6572 20.0734 19.7435 21.2597L20.8018 20.2014C21.0284 19.9773 21.3144 19.8229 21.6261 19.7565C21.9377 19.69 22.2619 19.7143 22.5601 19.8264C23.3162 20.1085 24.1018 20.3042 24.9018 20.4097C25.3066 20.4668 25.6763 20.6707 25.9406 20.9826C26.2049 21.2945 26.3453 21.6927 26.3351 22.1014Z" stroke="#333333" stroke-width="1.5" stroke-linecap="round" stroke-linejoin="round"/>
</svg>
