<?xml version="1.0" encoding="utf-8"?><!-- Uploaded to: SVG Repo, www.svgrepo.com, Generator: SVG Repo Mixer Tools -->
<svg width="28" height="28" viewBox="0 0 64 64" fill="none" xmlns="http://www.w3.org/2000/svg">
<path d="M33.9434 39.42V55.806C33.9434 56.3365 33.7327 56.8452 33.3576 57.2203C32.9826 57.5953 32.4739 57.806 31.9434 57.806C31.413 57.806 30.9043 57.5953 30.5292 57.2203C30.1541 56.8452 29.9434 56.3365 29.9434 55.806V39.42H33.9434Z" fill="#299C49"/>
<path d="M44.7334 32.62L41.4334 29.26L44.5534 10.66C44.6493 10.0873 44.6192 9.50056 44.4654 8.9406C44.3116 8.38064 44.0377 7.86088 43.6628 7.41744C43.2879 6.974 42.8209 6.6175 42.2943 6.37273C41.7677 6.12797 41.1941 6.00079 40.6134 6.00003H23.2734C22.6914 5.9976 22.1158 6.12256 21.5871 6.36614C21.0584 6.60972 20.5895 6.96603 20.2131 7.41006C19.8367 7.85409 19.562 8.37509 19.4084 8.93652C19.2547 9.49796 19.2257 10.0862 19.3234 10.66L22.4434 29.26L19.1434 32.62C18.5918 33.1828 18.2187 33.8959 18.071 34.67C17.9232 35.444 18.0073 36.2444 18.3129 36.9708C18.6184 37.6972 19.1316 38.3172 19.7882 38.7529C20.4448 39.1886 21.2154 39.4207 22.0034 39.42H41.8834C42.6716 39.4211 43.4425 39.189 44.0991 38.7529C44.7557 38.3168 45.2686 37.6962 45.5733 36.9693C45.8779 36.2423 45.9608 35.4415 45.8113 34.6676C45.6619 33.8937 45.2869 33.1813 44.7334 32.62Z" fill="#299C49"/>
</svg>