<svg width="29" height="32" viewBox="0 0 29 32" fill="none" xmlns="http://www.w3.org/2000/svg">
<path d="M6.07373 0C4.97373 0 4.07373 0.9 4.07373 2V30C4.07373 31.1 4.97373 32 6.07373 32H26.0737C27.1737 32 28.0737 31.1 28.0737 30V8L20.0737 0H6.07373Z" fill="#E2E5E7"/>
<path d="M22.0737 8H28.0737L20.0737 0V6C20.0737 7.1 20.9737 8 22.0737 8Z" fill="#B0B7BD"/>
<path d="M28.0737 14L22.0737 8H28.0737V14Z" fill="#CAD1D8"/>
<path d="M24.0737 26C24.0737 26.55 23.6237 27 23.0737 27H1.07373C0.52373 27 0.0737305 26.55 0.0737305 26V16C0.0737305 15.45 0.52373 15 1.07373 15H23.0737C23.6237 15 24.0737 15.45 24.0737 16V26Z" fill="#A066AA"/>
<path d="M3.87598 18.9464C3.87598 18.6824 4.08298 18.3934 4.41898 18.3934H6.26698C7.30598 18.3934 8.24198 19.0894 8.24198 20.4244C8.24198 21.6884 7.30598 22.3914 6.26698 22.3914H4.92998V23.4474C4.92998 23.8004 4.70798 23.9994 4.41898 23.9994C4.15498 23.9994 3.87598 23.8004 3.87598 23.4474V18.9464ZM4.92998 19.4014V21.3924H6.26598C6.80098 21.3924 7.22498 20.9204 7.22498 20.4244C7.22498 19.8644 6.80098 19.4014 6.26598 19.4014H4.92998Z" fill="white"/>
<path d="M9.26077 19.0264C9.26077 18.7374 9.32477 18.4584 9.74077 18.4584C10.0278 18.4584 10.0928 18.5304 10.3078 18.7374L12.9538 22.0484V18.9464C12.9538 18.6824 13.1848 18.3934 13.4578 18.3934C13.7458 18.3934 14.0248 18.6824 14.0248 18.9464V23.4474C14.0248 23.8004 13.8088 23.9344 13.6008 23.9994C13.3218 23.9994 13.1848 23.9354 12.9538 23.7204L10.3078 20.3614V23.4484C10.3078 23.8014 10.0918 24.0004 9.80377 24.0004C9.51577 24.0004 9.25977 23.8014 9.25977 23.4484V19.0264H9.26077Z" fill="white"/>
<path d="M20.0397 23.3844C19.4717 23.8554 18.7757 24.0564 18.0727 24.0564C16.3927 24.0564 15.2017 23.0964 15.2017 21.1934C15.2017 19.5784 16.4577 18.3234 18.1437 18.3234C18.7757 18.3234 19.4707 18.5394 19.9667 19.0274C20.4547 19.5064 19.7507 20.2184 19.2717 19.7954C18.9757 19.5064 18.5597 19.2914 18.1437 19.2914C17.1767 19.2914 16.2417 20.0664 16.2417 21.1934C16.2417 22.3774 17.0247 23.0964 18.0727 23.0964C18.5597 23.0964 18.9757 22.9524 19.2717 22.7364V21.7544H18.0727C17.3607 21.7544 17.4327 20.7774 18.0727 20.7774H19.6717C19.9677 20.7774 20.2387 21.0024 20.2387 21.2504V22.9534C20.2387 23.0964 20.1757 23.2314 20.0397 23.3844Z" fill="white"/>
<path d="M23.0737 27H4.07373V28H23.0737C23.6237 28 24.0737 27.55 24.0737 27V26C24.0737 26.55 23.6237 27 23.0737 27Z" fill="#CAD1D8"/>
</svg>
