<svg width="32" height="32" viewBox="0 0 32 32" fill="none" xmlns="http://www.w3.org/2000/svg">
<path d="M8 0C6.9 0 6 0.9 6 2V30C6 31.1 6.9 32 8 32H28C29.1 32 30 31.1 30 30V8L22 0H8Z" fill="#E2E5E7"/>
<path d="M24 8H30L22 0V6C22 7.1 22.9 8 24 8Z" fill="#B0B7BD"/>
<path d="M30 14L24 8H30V14Z" fill="#CAD1D8"/>
<path d="M26 26C26 26.55 25.55 27 25 27H3C2.45 27 2 26.55 2 26V16C2 15.45 2.45 15 3 15H25C25.55 15 26 15.45 26 16V26Z" fill="#FF7744"/>
<path d="M6.59106 18.947C6.59106 18.683 6.79906 18.395 7.13406 18.395H8.98106C10.0211 18.395 10.9571 19.091 10.9571 20.425C10.9571 21.689 10.0211 22.393 8.98106 22.393H7.64606V23.449C7.64606 23.801 7.42306 24 7.13506 24C6.87106 24 6.59206 23.801 6.59206 23.449V18.947H6.59106ZM7.64606 19.402V21.394H8.98106C9.51706 21.394 9.94106 20.921 9.94106 20.425C9.94106 19.866 9.51706 19.402 8.98106 19.402H7.64606Z" fill="white"/>
<path d="M11.9761 18.947C11.9761 18.683 12.1841 18.395 12.5201 18.395H14.3671C15.4071 18.395 16.3431 19.091 16.3431 20.425C16.3431 21.689 15.4071 22.393 14.3671 22.393H13.0321V23.449C13.0321 23.801 12.8081 24 12.5201 24C12.2561 24 11.9761 23.801 11.9761 23.449V18.947ZM13.0311 19.402V21.394H14.3661C14.9021 21.394 15.3261 20.921 15.3261 20.425C15.3261 19.866 14.9021 19.402 14.3661 19.402H13.0311Z" fill="white"/>
<path d="M18.8551 19.467H17.4571C16.7611 19.467 16.7611 18.444 17.4571 18.444H21.2381C21.9501 18.444 21.9501 19.467 21.2381 19.467H19.9111V23.505C19.9111 24.2 18.8551 24.217 18.8551 23.505V19.467Z" fill="white"/>
<path d="M25 27H6V28H25C25.55 28 26 27.55 26 27V26C26 26.55 25.55 27 25 27Z" fill="#CAD1D8"/>
</svg>
