<svg width="16" height="16" viewBox="0 0 16 16" fill="none" xmlns="http://www.w3.org/2000/svg">
<path d="M15.1705 7.17175H15.1697C15.0611 7.17184 14.9535 7.19333 14.8531 7.23501C14.7527 7.27668 14.6616 7.33771 14.5848 7.41462C14.508 7.49153 14.4471 7.58281 14.4056 7.68325C14.3641 7.78368 14.3428 7.89131 14.3429 7.99998C14.3419 9.16012 14.0229 10.2978 13.4205 11.2893C12.8182 12.2808 11.9556 13.0883 10.9265 13.6239C9.89739 14.1595 8.74116 14.4028 7.58349 14.3273C6.42581 14.2518 5.31097 13.8604 4.36015 13.1956C1.4949 11.1893 0.796035 7.22599 2.80233 4.3607C4.80863 1.49541 8.77202 0.796478 11.6373 2.80284C12.0708 3.10558 12.4647 3.46129 12.81 3.86171H10.4812C10.2618 3.86171 10.0513 3.94889 9.8961 4.10408C9.74091 4.25927 9.65373 4.46975 9.65373 4.68922C9.65373 4.90869 9.74091 5.11917 9.8961 5.27436C10.0513 5.42955 10.2618 5.51673 10.4812 5.51673H14.343C14.5624 5.51673 14.7729 5.42955 14.9281 5.27436C15.0833 5.11917 15.1705 4.90869 15.1705 4.68922V0.82751C15.1705 0.60804 15.0833 0.39756 14.9281 0.242372C14.7729 0.0871838 14.5624 0 14.343 0C14.1235 0 13.913 0.0871838 13.7578 0.242372C13.6026 0.39756 13.5154 0.60804 13.5154 0.82751V2.20555C13.225 1.93003 12.9146 1.67648 12.5866 1.447C11.7261 0.844521 10.7554 0.417414 9.72993 0.19007C8.70442 -0.0372742 7.64418 -0.0604039 6.60973 0.122001C5.57529 0.304407 4.5869 0.688775 3.701 1.25316C2.8151 1.81755 2.04904 2.5509 1.44656 3.41134C0.229792 5.14908 -0.246826 7.29901 0.121558 9.38817C0.489943 11.4773 1.67315 13.3346 3.4109 14.5513C4.74882 15.4937 6.34525 15.9997 7.98175 16C8.4531 15.9998 8.92353 15.9584 9.38769 15.8764C11.2397 15.5497 12.9175 14.5809 14.1263 13.1403C15.3352 11.6996 15.9978 9.87917 15.998 7.99853C15.9978 7.7792 15.9105 7.56891 15.7554 7.41388C15.6002 7.25885 15.3898 7.17176 15.1705 7.17175Z" fill="#FF7744"/>
</svg>
