<svg width="40" height="40" viewBox="0 0 40 40" fill="none" xmlns="http://www.w3.org/2000/svg">
<rect width="40" height="40" rx="20" fill="#F4F4F4"/>
<path d="M25.5629 15.6367C25.3314 15.6367 25.1094 15.7287 24.9458 15.8923C24.7821 16.056 24.6902 16.2779 24.6902 16.5094V26.2756C24.6651 26.7169 24.4667 27.1304 24.1382 27.4261C23.8097 27.7218 23.3776 27.8757 22.9361 27.8543H15.9721C15.5306 27.8757 15.0985 27.7218 14.77 27.4261C14.4414 27.1304 14.2431 26.7169 14.218 26.2756V16.5094C14.218 16.2779 14.1261 16.056 13.9624 15.8923C13.7988 15.7287 13.5768 15.6367 13.3453 15.6367C13.1139 15.6367 12.8919 15.7287 12.7283 15.8923C12.5646 16.056 12.4727 16.2779 12.4727 16.5094V26.2756C12.4976 27.1799 12.8798 28.0374 13.5357 28.6605C14.1916 29.2835 15.0677 29.6212 15.9721 29.5996H22.9361C23.8405 29.6212 24.7166 29.2835 25.3725 28.6605C26.0284 28.0374 26.4106 27.1799 26.4355 26.2756V16.5094C26.4355 16.2779 26.3436 16.056 26.1799 15.8923C26.0163 15.7287 25.7943 15.6367 25.5629 15.6367Z" fill="#333333"/>
<path d="M26.4372 13.0165H22.9465V11.2711C22.9465 11.0397 22.8545 10.8177 22.6909 10.654C22.5272 10.4904 22.3052 10.3984 22.0738 10.3984H16.8377C16.6062 10.3984 16.3842 10.4904 16.2206 10.654C16.0569 10.8177 15.965 11.0397 15.965 11.2711V13.0165H12.4742C12.2428 13.0165 12.0208 13.1084 11.8572 13.2721C11.6935 13.4357 11.6016 13.6577 11.6016 13.8892C11.6016 14.1206 11.6935 14.3426 11.8572 14.5062C12.0208 14.6699 12.2428 14.7619 12.4742 14.7619H26.4372C26.6686 14.7619 26.8906 14.6699 27.0543 14.5062C27.2179 14.3426 27.3099 14.1206 27.3099 13.8892C27.3099 13.6577 27.2179 13.4357 27.0543 13.2721C26.8906 13.1084 26.6686 13.0165 26.4372 13.0165ZM17.7103 13.0165V12.1438H21.2011V13.0165H17.7103Z" fill="#333333"/>
<path d="M18.5813 24.3643V18.2555C18.5813 18.0241 18.4894 17.8021 18.3257 17.6384C18.1621 17.4748 17.9401 17.3828 17.7086 17.3828C17.4772 17.3828 17.2552 17.4748 17.0915 17.6384C16.9279 17.8021 16.8359 18.0241 16.8359 18.2555V24.3643C16.8359 24.5957 16.9279 24.8177 17.0915 24.9814C17.2552 25.145 17.4772 25.237 17.7086 25.237C17.9401 25.237 18.1621 25.145 18.3257 24.9814C18.4894 24.8177 18.5813 24.5957 18.5813 24.3643Z" fill="#333333"/>
<path d="M21.7454 24.5831V18.4743C21.7454 18.2428 21.6534 18.0209 21.4898 17.8572C21.3261 17.6935 21.1041 17.6016 20.8727 17.6016C20.6412 17.6016 20.4193 17.6935 20.2556 17.8572C20.0919 18.0209 20 18.2428 20 18.4743V24.5831C20 24.8145 20.0919 25.0365 20.2556 25.2001C20.4193 25.3638 20.6412 25.4557 20.8727 25.4557C21.1041 25.4557 21.3261 25.3638 21.4898 25.2001C21.6534 25.0365 21.7454 24.8145 21.7454 24.5831Z" fill="#333333"/>
</svg>
