<svg width="31" height="30" viewBox="0 0 31 30" fill="none" xmlns="http://www.w3.org/2000/svg">
<path d="M24.8395 12.3552C24.8998 12.1301 24.8682 11.8902 24.7517 11.6883L22.9939 8.64369C22.8773 8.44183 22.6853 8.29453 22.4602 8.23418C22.2351 8.17388 21.9951 8.20541 21.7933 8.32201L20.6309 8.99308C19.9025 8.37521 19.0567 7.89211 18.1368 7.56849V6.21094C18.1368 5.72555 17.7433 5.33203 17.2579 5.33203H13.7423C13.2569 5.33203 12.8634 5.72555 12.8634 6.21094V7.56849C11.9434 7.89211 11.0976 8.37521 10.3693 8.99308L9.20688 8.32201C9.00503 8.20541 8.76485 8.17382 8.53997 8.23418C8.31479 8.29447 8.12284 8.44177 8.0063 8.64369L6.24849 11.6883C6.13195 11.8902 6.10036 12.1301 6.16066 12.3552C6.22101 12.5804 6.36831 12.7724 6.57017 12.8889L7.74315 13.5661C7.63927 14.0713 7.58987 14.538 7.58987 15C7.58987 15.462 7.63927 15.9286 7.74304 16.4339L6.57005 17.1111C6.3682 17.2276 6.22089 17.4196 6.16054 17.6447C6.10025 17.8699 6.13183 18.1098 6.24837 18.3116L8.00618 21.3563C8.12272 21.5581 8.31474 21.7054 8.53985 21.7658C8.76509 21.8262 9.00497 21.7946 9.20677 21.678L10.3691 21.0069C11.0976 21.6248 11.9433 22.1079 12.8632 22.4315V23.789C12.8632 24.2744 13.2568 24.6679 13.7421 24.6679H17.2578C17.7432 24.6679 18.1367 24.2744 18.1367 23.789V22.4315C19.0566 22.1079 19.9024 21.6248 20.6308 21.0069L21.7932 21.678C21.995 21.7945 22.2351 21.8261 22.4601 21.7658C22.6852 21.7055 22.8772 21.5582 22.9937 21.3563L24.7515 18.3116C24.8681 18.1098 24.8997 17.8698 24.8394 17.6447C24.779 17.4196 24.6317 17.2276 24.4299 17.1111L23.2569 16.4339C23.3608 15.9286 23.4102 15.462 23.4102 15C23.4102 14.538 23.3608 14.0713 23.257 13.5661L24.43 12.8889C24.6318 12.7724 24.7791 12.5804 24.8395 12.3552ZM21.401 13.3689C21.5725 13.9868 21.6524 14.505 21.6524 15C21.6524 15.4949 21.5725 16.0132 21.401 16.6311C21.2939 17.0172 21.4614 17.427 21.8084 17.6273L22.7899 18.1939L21.911 19.7161L20.9484 19.1604C20.6014 18.9601 20.1628 19.0197 19.8821 19.3056C19.1174 20.0837 18.1335 20.6457 17.0366 20.9309C16.6493 21.0316 16.3789 21.3813 16.3789 21.7816V22.9101H14.6211V21.7816C14.6211 21.3813 14.3506 21.0316 13.9633 20.9309C12.8664 20.6457 11.8825 20.0837 11.1179 19.3056C10.837 19.0197 10.3983 18.96 10.0515 19.1604L9.08893 19.7161L8.21003 18.1939L9.19147 17.6273C9.53852 17.427 9.70604 17.0172 9.59893 16.6311C9.42755 16.0132 9.34768 15.4949 9.34768 15C9.34768 14.505 9.42755 13.9868 9.59905 13.3689C9.70616 12.9827 9.53864 12.573 9.19159 12.3726L8.21015 11.8061L9.08905 10.2838L10.0516 10.8395C10.3986 11.0398 10.8371 10.9802 11.118 10.6944C11.8826 9.91628 12.8665 9.35425 13.9634 9.06908C14.3507 8.96835 14.6212 8.61867 14.6212 8.21841V7.08984H16.379V8.21841C16.379 8.61867 16.6494 8.96835 17.0368 9.06908C18.1336 9.35425 19.1175 9.91622 19.8822 10.6944C20.163 10.9802 20.6017 11.0398 20.9485 10.8395L21.9111 10.2838L22.79 11.8061L21.8086 12.3726C21.4614 12.573 21.2939 12.9827 21.401 13.3689Z" fill="#FF7744"/>
<path d="M15.5 10.6055C13.0769 10.6055 11.1055 12.5769 11.1055 15C11.1055 17.4231 13.0769 19.3945 15.5 19.3945C17.9231 19.3945 19.8945 17.4231 19.8945 15C19.8945 12.5769 17.9231 10.6055 15.5 10.6055ZM15.5 17.6367C14.0461 17.6367 12.8633 16.4539 12.8633 15C12.8633 13.5461 14.0461 12.3633 15.5 12.3633C16.9539 12.3633 18.1367 13.5461 18.1367 15C18.1367 16.4539 16.9539 17.6367 15.5 17.6367Z" fill="#FF7744"/>
<path d="M27.308 6.92079C27.6654 6.56337 27.5203 6.02126 27.5203 6.02126L26.2773 2.29236C26.1238 1.83181 25.626 1.58291 25.1656 1.73648C24.7051 1.89 24.4563 2.38775 24.6097 2.84824L24.7154 3.16517C23.9267 2.56488 23.0768 2.03584 22.1821 1.59205C20.0823 0.550546 17.7717 0 15.5 0C11.515 0 7.75425 1.56627 4.91029 4.41023C2.06621 7.25425 0.5 11.0151 0.5 15C0.5 16.8405 0.88666 18.7259 1.64908 20.6041C1.78771 20.9455 2.1166 21.1525 2.46371 21.1525C2.57381 21.1525 2.68578 21.1317 2.79406 21.0878C3.24382 20.9052 3.46039 20.3926 3.27781 19.9428C2.60093 18.2757 2.25781 16.6127 2.25781 15C2.25781 7.69821 8.19821 1.75781 15.5 1.75781C18.1801 1.75781 20.8856 2.64937 23.1334 4.19566C22.7038 4.10736 22.2661 4.35181 22.1239 4.77831C21.9705 5.2388 22.2193 5.73655 22.6798 5.89007L26.4087 7.13302C26.4087 7.13302 26.9342 7.29456 27.308 6.92079Z" fill="#FF7744"/>
<path d="M3.47945 23.9789L4.7224 27.7078C4.84521 28.0761 5.18804 28.3091 5.55613 28.309C5.64824 28.309 5.74199 28.2944 5.83416 28.2637C6.29464 28.1102 6.54349 27.6125 6.39003 27.152L6.28439 26.835C7.07306 27.4353 7.92296 27.9644 8.81769 28.4082C10.9177 29.4497 13.2283 30.0002 15.5 30.0002C19.485 30.0002 23.2457 28.434 26.0897 25.59C28.9338 22.746 30.5 18.9851 30.5 15.0002C30.5 13.1597 30.1133 11.2743 29.3509 9.39616C29.1683 8.9464 28.6556 8.72989 28.2059 8.91241C27.7562 9.09505 27.5396 9.60762 27.7222 10.0574C28.399 11.7245 28.7422 13.3875 28.7422 15.0002C28.7422 22.302 22.8018 28.2424 15.5 28.2424C12.8199 28.2424 10.1144 27.3508 7.86654 25.8045C8.2962 25.8928 8.73384 25.6484 8.87605 25.2218C9.0295 24.7614 8.78066 24.2636 8.32017 24.1101L4.59127 22.8671C4.07025 22.6935 3.69174 23.0795 3.69174 23.0795C3.32664 23.4445 3.47945 23.9789 3.47945 23.9789Z" fill="#FF7744"/>
</svg>
