<svg width="117" height="48" viewBox="0 0 117 48" fill="none" xmlns="http://www.w3.org/2000/svg">
<path d="M26.2217 20.9777C26.0776 26.9152 24.6489 29.1998 22.6559 32.0317C21.5753 33.5667 18.5738 36.5176 14.6838 37.886C11.3341 39.0639 9.16094 38.8141 9.16094 38.8141V0H0.000244141V48H2.54555C7.07187 48 9.98936 47.9167 12.9189 47.4526C16.6888 46.8577 21.1071 45.1681 25.0091 42.3718C26.5338 41.2652 28.3348 39.6351 29.6915 38.0169C33.2093 33.8166 35.3103 28.1051 35.3704 21.8463V0H26.2217V20.9777Z" fill="white"/>
<path d="M96.2186 19.5022V28.5692H107.841V33.7452C107.841 35.173 107.324 36.3867 106.304 37.3981C105.283 38.4095 104.023 38.9212 102.534 38.9212H96.0025C94.5617 38.9212 93.3371 38.4095 92.3166 37.3981C91.2961 36.3867 90.7798 35.1611 90.7798 33.7452V14.2548C90.7798 12.827 91.2961 11.6014 92.3166 10.59C93.3491 9.57858 94.5737 9.06693 96.0025 9.06693H111.538V0H96.0025C92.0524 0 88.6667 1.39217 85.8573 4.1884C83.0358 6.98463 81.6311 10.3282 81.6311 14.2548V33.7571C81.6311 37.6718 83.0358 41.0273 85.8573 43.8116C88.6787 46.6078 92.0524 48 96.0025 48H102.534C106.532 48 109.942 46.6078 112.763 43.8116C115.585 41.0273 116.989 37.6718 116.989 33.7571V19.5022H96.2186Z" fill="white"/>
<path d="M71.9174 4.1884C69.096 1.39217 65.6862 0 61.6882 0H55.1568H40.7734V14.2429V48H49.9221V14.2429V9.06693C49.9221 9.06693 53.7161 9.05503 55.1568 9.05503H61.6882C63.1769 9.05503 64.4256 9.56668 65.4581 10.5781C66.4786 11.5895 66.9949 12.8151 66.9949 14.231V47.9881H73.3821H75.4472C75.6753 47.0481 75.8434 46.3342 75.9635 45.8582C75.9995 45.7392 76.0235 45.644 76.0475 45.5726C76.0715 45.4774 76.1075 45.3822 76.1436 45.2871V42.4194V14.2429C76.1436 10.3401 74.7268 6.98463 71.9174 4.1884Z" fill="white"/>
</svg>
