<svg width="38" height="38" viewBox="0 0 38 38" fill="none" xmlns="http://www.w3.org/2000/svg">
<g clip-path="url(#clip0_39819_225461)">
<path d="M9.5 6.10352e-05C8.19375 6.10352e-05 7.125 1.06881 7.125 2.37506V35.6251C7.125 36.9313 8.19375 38.0001 9.5 38.0001H33.25C34.5562 38.0001 35.625 36.9313 35.625 35.6251V9.50006L26.125 6.10352e-05H9.5Z" fill="#E2E5E7"/>
<path d="M28.5 9.50006H35.625L26.125 6.10352e-05V7.12506C26.125 8.43131 27.1938 9.50006 28.5 9.50006Z" fill="#B0B7BD"/>
<path d="M35.625 16.6251L28.5 9.50006H35.625V16.6251Z" fill="#CAD1D8"/>
<path d="M30.875 30.8751C30.875 31.5282 30.3406 32.0626 29.6875 32.0626H3.5625C2.90938 32.0626 2.375 31.5282 2.375 30.8751V19.0001C2.375 18.3469 2.90938 17.8126 3.5625 17.8126H29.6875C30.3406 17.8126 30.875 18.3469 30.875 19.0001V30.8751Z" fill="#84BD5A"/>
<path d="M10.7113 24.2096L12.3631 22.1398C12.8571 21.4938 13.8166 22.3191 13.2751 22.9366C12.7063 23.6111 12.1078 24.3426 11.5378 25.0919L13.4746 27.5037C13.9971 28.2162 12.9533 28.899 12.4403 28.196L10.6923 25.9552L8.974 28.2447C8.4895 28.937 7.416 28.1592 7.9575 27.5132L9.86581 25.0919C9.26731 24.3414 8.68781 23.6111 8.1095 22.9366C7.51218 22.2241 8.6225 21.4938 9.0595 22.16L10.7113 24.2096Z" fill="white"/>
<path d="M14.6484 22.4996C14.6484 22.1861 14.9144 21.9201 15.2469 21.9201C15.5509 21.9201 15.8074 22.1873 15.8074 22.4996V27.2567H18.3902C19.3201 27.2567 19.3402 28.5 18.3902 28.5H15.2481C14.9156 28.5 14.6496 28.2637 14.6496 27.9217V22.4996H14.6484Z" fill="white"/>
<path d="M20.1884 23.3546C20.4069 21.5116 23.188 21.1803 24.499 22.1873C25.145 22.7086 24.461 23.5351 23.891 23.1171C23.188 22.6718 21.5932 22.4628 21.3937 23.4484C21.1372 25.0064 25.2673 24.1146 25.2008 26.6404C25.1343 29.0522 21.6407 29.108 20.3297 28.0262C20.015 27.7697 20.0257 27.3529 20.1967 27.0952C20.4437 26.8494 20.718 26.7639 21.0422 27.0299C21.82 27.5607 23.8245 27.9597 23.9658 26.6107C23.8435 25.2071 19.8939 26.0514 20.1884 23.3546Z" fill="white"/>
<path d="M29.6875 32.0626H7.125V33.2501H29.6875C30.3406 33.2501 30.875 32.7157 30.875 32.0626V30.8751C30.875 31.5282 30.3406 32.0626 29.6875 32.0626Z" fill="#CAD1D8"/>
</g>
<defs>
<clipPath id="clip0_39819_225461">
<rect width="38" height="38" fill="white"/>
</clipPath>
</defs>
</svg>
