<svg width="36" height="36" viewBox="0 0 36 36" fill="none" xmlns="http://www.w3.org/2000/svg">
<rect width="36" height="36" rx="18" fill="#F4F4F4"/>
<g clip-path="url(#clip0_40760_46890)">
<path d="M27.1406 21.7454C27.1365 21.7098 27.157 21.6582 27.1017 21.6468C27.0632 21.639 27.0394 21.675 27.0198 21.7024C26.9347 21.8002 26.8401 21.89 26.7372 21.9707C25.7264 22.8406 24.5266 23.4861 23.2239 23.8609C21.6773 24.3096 20.1118 24.4433 18.5111 24.1672C17.9514 24.0705 17.4055 23.9199 16.8622 23.769C16.5729 23.6827 16.2635 23.6796 15.9723 23.76C15.6685 23.8452 15.3581 23.9121 15.0551 23.9986C14.1096 24.2681 13.1481 24.3299 12.1707 24.2204C12.1433 24.2203 12.1165 24.213 12.0933 24.1992C12.0701 24.1854 12.0513 24.1656 12.0393 24.1421C12.0122 24.0858 12.0642 24.0498 12.1031 24.0217C12.1904 23.9583 12.2825 23.9008 12.3738 23.8425C12.8513 23.5358 13.2804 23.1806 13.5765 22.7018C13.7198 22.4699 13.8 22.2234 13.5973 21.9762C13.5738 21.9224 13.539 21.8738 13.495 21.8334C13.1264 21.4258 12.7542 21.0249 12.4279 20.5856C10.9758 18.6297 10.6736 16.4892 11.3763 14.2275C11.9496 12.3835 13.1891 10.9933 14.8647 9.94883C15.0072 9.86003 15.155 9.77906 15.3196 9.68362C15.298 9.67683 15.2758 9.6716 15.2533 9.66797C13.8823 9.6801 12.5098 9.65467 11.14 9.69144C10.4869 9.70904 9.95008 9.94414 9.50661 10.3873C9.22202 10.669 8.99681 10.9901 8.92924 11.384C8.8711 11.7267 8.87724 12.0756 8.87396 12.4222C8.85977 14.1134 8.8498 15.8046 8.84407 17.4957C8.83724 19.7645 8.83356 22.0333 8.83301 24.3021C8.82966 24.3556 8.83491 24.4093 8.84857 24.4613C8.97633 24.8326 9.12784 25.1963 9.40957 25.4917C9.73347 25.8316 10.0852 26.1395 10.5885 26.206C11.0142 26.2617 11.4439 26.2837 11.8734 26.2717C11.9963 26.2791 12.1191 26.292 12.242 26.2928C14.0998 26.3034 15.9576 26.3159 17.8158 26.3206C20.1089 26.3264 22.402 26.3526 24.6951 26.3077C25.4343 26.2932 26.0514 26.044 26.5513 25.5347C26.9109 25.1686 27.1422 24.7441 27.1422 24.2227C27.1422 23.6899 27.1606 23.1572 27.1656 22.6244C27.166 22.3314 27.175 22.0376 27.1406 21.7454Z" fill="#333333"/>
<path d="M14.1172 14.4826C13.9194 14.5073 13.7486 14.6806 13.7458 14.8531C13.7429 15.0178 13.9063 15.1817 14.1049 15.2165C14.2465 15.2367 14.3896 15.246 14.5328 15.2442C14.8903 15.2513 15.249 15.2294 15.6061 15.2646C15.6597 15.2697 15.7322 15.2493 15.7617 15.2994C15.7911 15.3495 15.7281 15.3952 15.6966 15.4359C15.5541 15.6206 15.4099 15.8032 15.2625 15.9836C14.7605 16.6063 14.2535 17.2251 13.7577 17.8526C13.564 18.0978 13.7499 18.5614 14.109 18.5567C14.3334 18.5543 14.5594 18.5809 14.7826 18.5825C15.4476 18.5872 16.113 18.5727 16.7772 18.5942C17.0089 18.6017 17.1228 18.5074 17.2202 18.3404C17.2556 18.2863 17.2727 18.2231 17.2692 18.1594C17.2657 18.0957 17.2417 18.0346 17.2006 17.9844C17.0777 17.8115 16.8963 17.7661 16.6928 17.765C16.2784 17.7626 15.8644 17.7607 15.45 17.7556C15.3141 17.7556 15.1761 17.7622 15.0242 17.7204C15.0496 17.684 15.0623 17.6633 15.0774 17.6445C15.5909 17.0186 16.106 16.3927 16.6167 15.7633C16.7981 15.54 16.9786 15.3143 17.1031 15.0549C17.2423 14.7651 17.1232 14.5523 16.7964 14.5038C16.2887 14.4283 15.7768 14.4373 15.2662 14.4384C14.8837 14.4419 14.4992 14.4357 14.1172 14.4826Z" fill="#333333"/>
<path d="M19.4918 18.4906C19.6212 18.4123 19.71 18.4166 19.8239 18.5144C19.975 18.6439 20.1596 18.6834 20.3509 18.5973C20.5421 18.5113 20.6121 18.3536 20.6281 18.1585C20.6555 17.817 20.6563 17.4755 20.6567 17.1336C20.6547 16.699 20.6686 16.2632 20.6011 15.8321C20.5568 15.5493 20.2862 15.4066 20.0036 15.504C19.9231 15.5355 19.8483 15.5788 19.7817 15.6323C19.6973 15.6941 19.624 15.6952 19.5311 15.6393C18.6572 15.1147 17.4599 15.6475 17.3055 16.6254C17.2665 16.8967 17.268 17.1718 17.31 17.4426C17.4489 18.4323 18.5647 19.0472 19.4918 18.4906ZM18.312 16.717C18.4238 16.4322 18.6761 16.2624 18.9787 16.2718C19.1253 16.2775 19.266 16.3283 19.3798 16.4168C19.4936 16.5052 19.5744 16.6264 19.6101 16.7624C19.6841 16.9934 19.6635 17.2427 19.5524 17.4598C19.4013 17.7489 19.1351 17.8952 18.8505 17.8483C18.6988 17.8208 18.5602 17.7481 18.4545 17.6406C18.3487 17.5332 18.2814 17.3965 18.2621 17.2501C18.2531 17.1876 18.2527 17.1242 18.2486 17.0608C18.2466 16.9434 18.2682 16.8267 18.312 16.717Z" fill="#333333"/>
<path d="M23.2867 18.5088C23.8776 18.8045 24.4963 18.8002 25.0688 18.4579C25.6412 18.1157 25.8333 17.5931 25.8243 16.9547C25.8087 15.8856 24.6658 15.1455 23.5512 15.5136C22.982 15.7014 22.4661 16.2635 22.489 17.0392C22.4866 17.678 22.6872 18.2092 23.2867 18.5088ZM23.9009 16.3225C24.1519 16.2165 24.4034 16.2631 24.6065 16.4399C24.9476 16.7384 24.993 17.577 24.369 17.8156C24.1233 17.9091 23.8063 17.8223 23.6241 17.5903C23.4968 17.4276 23.4464 17.2418 23.4468 16.986C23.4656 16.7243 23.5733 16.4598 23.9009 16.3218V16.3225Z" fill="#333333"/>
<path d="M21.2285 18.476C21.2821 18.5486 21.3593 18.6025 21.448 18.6292C21.5368 18.6559 21.6323 18.654 21.7198 18.6239C21.9295 18.5531 22.0716 18.3833 22.0716 18.2034C22.0716 17.6169 22.0716 17.0301 22.0716 16.4431C22.0716 16.2186 22.074 15.9936 22.0716 15.7687C22.0667 15.3537 22.0945 14.9379 22.0503 14.5236C22.0192 14.233 21.8456 14.1054 21.5409 14.1324C21.2821 14.1536 21.1175 14.3194 21.1159 14.56C21.1159 14.7262 21.1159 14.8921 21.113 15.0583C21.0941 16.0942 21.072 17.1316 21.113 18.1654C21.1161 18.278 21.1565 18.3868 21.2285 18.476Z" fill="#333333"/>
</g>
<defs>
<clipPath id="clip0_40760_46890">
<rect width="18.3333" height="16.6667" fill="white" transform="translate(8.83203 9.66797)"/>
</clipPath>
</defs>
</svg>
