<svg width="22" height="22" viewBox="0 0 22 22" fill="none" xmlns="http://www.w3.org/2000/svg"> 
    <path d="M11.0946 9.59375H3.84065C2.75473 9.59375 2.09775 10.2307 2.14119 11.1996C2.17188 11.6445 2.37626 12.0603 2.71138 12.3598C3.04651 12.6592 3.4863 12.819 3.93838 12.8055H4.24787C3.8499 12.8167 3.47267 12.983 3.19888 13.268C2.92509 13.553 2.77709 13.9334 2.78731 14.3258C2.78751 14.7084 2.93409 15.0769 3.19778 15.3578C3.46147 15.6386 3.82288 15.811 4.20986 15.8406C3.97901 16.0191 3.80479 16.2589 3.70777 16.5318C3.61076 16.8047 3.59501 17.0993 3.66238 17.3808C3.72976 17.6623 3.87745 17.9188 4.08799 18.1202C4.29854 18.3215 4.56315 18.4593 4.85055 18.5171C4.66956 18.8438 4.61368 19.2238 4.6931 19.5877C4.78648 19.94 4.99855 20.2506 5.29452 20.4685C5.5905 20.6864 5.95279 20.7986 6.32197 20.7868H10.7634C11.3441 20.7834 11.9221 20.7097 12.4846 20.5673L15.2699 19.7644C15.4328 19.7162 17.8436 19.7644 18.9295 19.7644C20.8678 19.6894 21.3891 10.9213 18.9295 10.9213C18.9295 10.9213 18.0336 10.9534 17.8436 10.9213C17.7567 10.9213 17.5612 10.5573 17.078 10.0434L17.0346 9.98986C16.3287 9.2351 15.5251 8.26086 14.9605 7.70951C13.5868 6.38197 12.4466 5.24715 11.6538 3.51279C11.2629 2.56532 11.214 2.09961 10.2856 2.09961C9.90583 2.13751 9.55674 2.32206 9.3146 2.61295C9.07246 2.90383 8.95695 3.27738 8.99333 3.65197C9.03463 4.16374 9.10351 4.67299 9.19966 5.17756C9.54172 6.98686 11.062 9.45992 11.1054 9.57233L11.0946 9.59375Z" stroke="#888888" stroke-width="1.33486" stroke-linecap="round" stroke-linejoin="round"/>
</svg>
